<?xml version="1.0" encoding="UTF-8"?>
<svg id="Livello_2" data-name="Livello 2" xmlns="http://www.w3.org/2000/svg" xmlns:xlink="http://www.w3.org/1999/xlink" viewBox="0 0 1674.52 586.21">
  <defs>
    <style>
      .cls-1 {
        clip-path: url(#clippath);
      }

      .cls-2 {
        fill: #1f1abf;
      }

      .cls-2, .cls-3, .cls-4 {
        stroke-width: 0px;
      }

      .cls-3 {
        fill: none;
      }

      .cls-4 {
        fill: #f6dd34;
      }

      .cls-5 {
        clip-path: url(#clippath-1);
      }

      .cls-6 {
        clip-path: url(#clippath-2);
      }
    </style>
    <clipPath id="clippath">
      <rect class="cls-3" x="418.72" y=".04" width="838.18" height="586.16"/>
    </clipPath>
    <clipPath id="clippath-1">
      <rect class="cls-3" x="1256.89" y=".04" width="417.63" height="585.57"/>
    </clipPath>
    <clipPath id="clippath-2">
      <rect class="cls-3" width="418.72" height="586.16"/>
    </clipPath>
  </defs>
  <g id="About_Us" data-name="About Us">
    <g>
      <g class="cls-1">
        <g>
          <path class="cls-2" d="M179.57,124.05h-12.84l12.65-69.2h17.06l12.65,69.2h-12.65l-2.35-14.13h-12.25l-2.25,14.13ZM183.59,98.79h8.72l-2.94-18.2c-.49-3.29-.98-7.74-1.18-10.16h-.59c-.1,2.42-.69,6.87-1.18,10.16l-2.84,18.2Z"/>
          <path class="cls-2" d="M226.03,95.6v21.39l.1,7.07h-12.65l.1-7.07v-55.07l-.1-7.07h17.65c15.68,0,19.51,9.19,19.51,20.42v.19c0,7.26-2.06,13.55-7.84,17.13l9.41,31.46h-13.33l-8.04-28.46h-4.8ZM226.03,85.05h3.33c7.06,0,8.43-4.36,8.43-9.68v-.1c0-5.32-1.47-9.58-8.24-9.58h-3.53v19.36Z"/>
          <path class="cls-2" d="M275.82,65.69v51.3l.1,7.07h-12.55l.1-7.07v-51.3h-12.35v-10.84h37.15v10.84h-12.45Z"/>
          <path class="cls-2" d="M288.27,112.83h12.84v11.13l-6.27,12.2h-6.27l4.8-12.1h-5.1v-11.23Z"/>
          <path class="cls-2" d="M432.73,58.82c4.31,3.58,6.08,8.71,6.08,19.65v21.97c0,10.94-1.76,16.07-6.08,19.65-2.94,2.52-6.96,3.97-12.06,3.97h-18.82l.1-7.07v-55.07l-.1-7.07h18.82c5.1,0,9.12,1.45,12.06,3.97ZM414.4,65.69v47.52h4.31c5.78,0,7.45-3.77,7.45-9.39v-28.75c0-5.23-1.57-9.39-7.45-9.39h-4.31Z"/>
          <path class="cls-2" d="M459.88,93.47v19.74h19.61v10.84h-32.15l.1-7.07v-55.07l-.1-7.07h31.76v10.84h-19.21v16.74h15.1v11.03h-15.1Z"/>
          <path class="cls-2" d="M494.57,104.89c1.18,6.39,4.12,8.81,8.33,8.81s6.47-2.42,6.47-6c0-3.87-2.55-7.55-8.14-11.61l-6.47-4.65c-7.74-5.61-11.08-12.2-11.08-19.45,0-10.74,7.45-18.29,19.02-18.29,10.69,0,16.86,6.39,18.43,17.23l-12.25,1.65c-.69-4.65-2.65-7.36-6.57-7.36s-5.88,2.61-5.88,6.19c0,4.36,3.14,7.45,8.23,11.13l6.37,4.55c7.35,5.32,11.08,12.1,11.08,19.94,0,11.13-7.55,18.2-19.31,18.2s-18.72-6.97-20.39-18.68l12.16-1.64Z"/>
          <path class="cls-2" d="M540.44,54.85l-.1,7.07v55.07l.1,7.07h-12.65l.1-7.07v-55.07l-.1-7.07h12.65Z"/>
          <path class="cls-2" d="M567.88,87.66h18.82v36.39h-5.88l-2.65-5.42h-.2c-2.75,4.16-6.18,6.39-11.96,6.39-4.12,0-8.04-1.16-11.08-3.77-4.22-3.58-6.08-9.68-6.08-22.84v-17.91c0-14.03,2.16-19.45,6.08-22.84,3.14-2.71,7.55-3.97,12.45-3.97,5.2,0,9.51,1.35,12.55,3.97,3.92,3.39,6.08,8.9,6.08,21.29v.19h-12.65v-.19c0-8.23,0-13.74-5.98-13.74s-5.88,5.52-5.88,12.58v23.33c0,7.26,0,12.58,5.88,12.58,7.16,0,7.16-7.84,7.16-14.81v-.1h-6.67v-11.13Z"/>
          <path class="cls-2" d="M608.26,54.85l12.65,30.87c1.47,3.58,2.25,6.1,2.94,8.52h.39c-.2-2.52-.49-6.29-.49-9v-23.33l-.1-7.07h12.25l-.1,7.07v55.07l.1,7.07h-11.37l-14.02-34.94c-1.57-3.58-2.35-6.1-3.14-8.52h-.39c.2,2.52.49,6.29.49,9v27.39l.1,7.07h-12.25l.1-7.07v-55.07l-.1-7.07h12.94Z"/>
          <path class="cls-2" d="M643.45,112.83h12.84v11.13l-6.27,12.2h-6.27l4.8-12.1h-5.1v-11.23Z"/>
          <path class="cls-2" d="M769.58,93.47v23.52l.1,7.07h-12.65l.1-7.07v-55.07l-.1-7.07h31.66v10.84h-19.12v16.74h15.1v11.03h-15.1Z"/>
          <path class="cls-2" d="M805.64,54.85l-.1,7.07v55.07l.1,7.07h-12.65l.1-7.07v-55.07l-.1-7.07h12.65Z"/>
          <path class="cls-2" d="M815.83,124.05l.1-7.07v-55.07l-.1-7.07h12.65l-.1,7.07v51.3h17.65v10.84h-30.19Z"/>
          <path class="cls-2" d="M851.01,116.99v-55.07l-.1-7.07h17.16l7.16,34.46c.59,2.61,1.08,6.58,1.27,9.19h.39c.29-2.61.69-6.58,1.27-9.19l7.25-34.46h16.96l-.1,7.07v55.07l.1,7.07h-11.37l.1-7.07v-33.49c0-2.81.29-6.68.39-9.19h-.49c-.29,2.52-.78,6.29-1.37,9l-8.33,40.75h-9.41l-8.33-40.75c-.59-2.71-.98-6.48-1.37-9h-.39c.1,2.52.29,6.39.29,9.19v33.49l.1,7.07h-11.27l.1-7.07Z"/>
          <path class="cls-2" d="M909.92,112.83h12.84v11.13l-6.27,12.2h-6.27l4.8-12.1h-5.1v-11.23Z"/>
          <path class="cls-2" d="M1023.6,116.99v-55.07l-.1-7.07h17.65c15.68,0,19.51,9.19,19.51,20.62v.19c0,11.42-3.82,20.62-19.51,20.62h-5.1v20.71l.1,7.07h-12.65l.1-7.07ZM1039.58,85.44c6.76,0,8.24-4.26,8.24-9.78v-.19c0-5.52-1.47-9.78-8.24-9.78h-3.53v19.74h3.53Z"/>
          <path class="cls-2" d="M1102.51,54.85l-.1,7.07v55.07l.1,7.07h-12.55l.1-7.07v-23.52h-12.16v23.52l.1,7.07h-12.65l.1-7.07v-55.07l-.1-7.07h12.65l-.1,7.07v20.52h12.16v-20.52l-.1-7.07h12.55Z"/>
          <path class="cls-2" d="M1117.01,121.25c-3.92-3.39-6.08-8.81-6.08-22.84v-17.91c0-14.03,2.16-19.45,6.08-22.84,3.04-2.61,7.35-3.97,12.45-3.97s9.51,1.35,12.55,3.97c3.92,3.39,6.08,8.81,6.08,22.84v17.91c0,14.03-2.16,19.45-6.08,22.84-3.04,2.61-7.35,3.97-12.55,3.97s-9.41-1.36-12.45-3.97ZM1135.44,101.12v-23.33c0-7.16,0-12.58-5.98-12.58s-5.88,5.42-5.88,12.58v23.33c0,7.16,0,12.58,5.88,12.58s5.98-5.42,5.98-12.58Z"/>
          <path class="cls-2" d="M1175.62,65.69v51.3l.1,7.07h-12.55l.1-7.07v-51.3h-12.35v-10.84h37.15v10.84h-12.45Z"/>
          <path class="cls-2" d="M1196.99,121.25c-3.92-3.39-6.08-8.81-6.08-22.84v-17.91c0-14.03,2.16-19.45,6.08-22.84,3.04-2.61,7.35-3.97,12.45-3.97s9.51,1.35,12.55,3.97c3.92,3.39,6.08,8.81,6.08,22.84v17.91c0,14.03-2.16,19.45-6.08,22.84-3.04,2.61-7.35,3.97-12.55,3.97s-9.41-1.36-12.45-3.97ZM1215.42,101.12v-23.33c0-7.16,0-12.58-5.98-12.58s-5.88,5.42-5.88,12.58v23.33c0,7.16,0,12.58,5.88,12.58s5.98-5.42,5.98-12.58Z"/>
          <path class="cls-2" d="M1254.92,87.66h18.82v36.39h-5.88l-2.65-5.42h-.2c-2.75,4.16-6.18,6.39-11.96,6.39-4.12,0-8.04-1.16-11.08-3.77-4.22-3.58-6.08-9.68-6.08-22.84v-17.91c0-14.03,2.16-19.45,6.08-22.84,3.14-2.71,7.55-3.97,12.45-3.97,5.2,0,9.51,1.35,12.55,3.97,3.92,3.39,6.08,8.9,6.08,21.29v.19h-12.65v-.19c0-8.23,0-13.74-5.98-13.74s-5.88,5.52-5.88,12.58v23.33c0,7.26,0,12.58,5.88,12.58,7.16,0,7.16-7.84,7.16-14.81v-.1h-6.67v-11.13Z"/>
          <path class="cls-2" d="M1294.91,95.6v21.39l.1,7.07h-12.65l.1-7.07v-55.07l-.1-7.07h17.65c15.68,0,19.51,9.19,19.51,20.42v.19c0,7.26-2.06,13.55-7.84,17.13l9.41,31.46h-13.33l-8.04-28.46h-4.8ZM1294.91,85.05h3.33c7.06,0,8.43-4.36,8.43-9.68v-.1c0-5.32-1.47-9.58-8.24-9.58h-3.53v19.36Z"/>
          <path class="cls-2" d="M1335.09,124.05h-12.84l12.65-69.2h17.06l12.65,69.2h-12.65l-2.35-14.13h-12.25l-2.25,14.13ZM1339.11,98.79h8.72l-2.94-18.2c-.49-3.29-.98-7.74-1.18-10.16h-.59c-.1,2.42-.69,6.87-1.18,10.16l-2.84,18.2Z"/>
          <path class="cls-2" d="M1369.1,116.99v-55.07l-.1-7.07h17.65c15.68,0,19.51,9.19,19.51,20.62v.19c0,11.42-3.82,20.62-19.51,20.62h-5.1v20.71l.1,7.07h-12.65l.1-7.07ZM1385.08,85.44c6.76,0,8.24-4.26,8.24-9.78v-.19c0-5.52-1.47-9.78-8.24-9.78h-3.53v19.74h3.53Z"/>
          <path class="cls-2" d="M1448.01,54.85l-.1,7.07v55.07l.1,7.07h-12.55l.1-7.07v-23.52h-12.16v23.52l.1,7.07h-12.65l.1-7.07v-55.07l-.1-7.07h12.65l-.1,7.07v20.52h12.16v-20.52l-.1-7.07h12.55Z"/>
          <path class="cls-2" d="M1472.51,79.82h.39l8.04-24.97h12.35l-14.41,40.84v21.29l.1,7.07h-12.74l.1-7.07v-21.29l-14.51-40.84h12.65l8.04,24.97Z"/>
          <path class="cls-2" d="M1492.01,112.83h12.84v11.13l-6.27,12.2h-6.27l4.8-12.1h-5.1v-11.23Z"/>
          <path class="cls-2" d="M195.98,182.62h12.56l-14.23,69.2h-13.84l-14.23-69.2h12.86l6.87,36.39c.49,3.19,1.08,7.74,1.28,10.94h.49c.2-3.19.78-7.74,1.28-10.94l6.97-36.39Z"/>
          <path class="cls-2" d="M225.19,182.62l-.1,7.07v55.07l.1,7.07h-12.66l.1-7.07v-55.07l-.1-7.07h12.66Z"/>
          <path class="cls-2" d="M242.93,232.66c1.18,6.39,4.12,8.81,8.34,8.81s6.48-2.42,6.48-6c0-3.87-2.55-7.55-8.15-11.61l-6.48-4.65c-7.75-5.61-11.09-12.2-11.09-19.45,0-10.74,7.46-18.29,19.04-18.29,10.7,0,16.88,6.39,18.45,17.23l-12.27,1.65c-.69-4.65-2.65-7.36-6.58-7.36s-5.89,2.61-5.89,6.19c0,4.36,3.14,7.45,8.24,11.13l6.38,4.55c7.36,5.32,11.09,12.1,11.09,19.94,0,11.13-7.56,18.2-19.33,18.2s-18.75-6.97-20.41-18.68l12.17-1.64Z"/>
          <path class="cls-2" d="M312.87,182.62l-.1,7.07v44.72c0,11.9-7.07,18.58-18.45,18.58s-18.35-6.68-18.35-18.58v-44.72l-.1-7.07h12.66l-.1,7.07v43.36c0,5.42,1.47,8.42,5.89,8.42s5.99-3,5.99-8.42v-43.36l-.1-7.07h12.66Z"/>
          <path class="cls-2" d="M329.82,251.82h-12.86l12.66-69.2h17.08l12.66,69.2h-12.66l-2.36-14.13h-12.27l-2.26,14.13ZM333.84,226.56h8.73l-2.94-18.2c-.49-3.29-.98-7.74-1.18-10.16h-.59c-.1,2.42-.69,6.87-1.18,10.16l-2.85,18.2Z"/>
          <path class="cls-2" d="M363.94,251.82l.1-7.07v-55.07l-.1-7.07h12.66l-.1,7.07v51.3h17.67v10.84h-30.23Z"/>
          <path class="cls-2" d="M491.84,249.01c-3.93-3.39-6.08-8.81-6.08-22.84v-17.91c0-14.03,2.16-19.45,6.08-22.84,3.04-2.61,7.36-3.97,12.56-3.97,5.5,0,9.72,1.55,12.46,3.97,3.93,3.39,6.09,8.9,6.09,21.29v.19h-12.66v-.19c0-8.23,0-13.74-5.89-13.74s-5.99,5.52-5.99,12.58v23.33c0,7.36,0,12.58,5.99,12.58s6.09-5.23,6.09-15.39v-.1h12.66v.1c0,14.13-2.26,19.55-6.18,22.94-3.04,2.61-7.36,3.97-12.56,3.97s-9.52-1.36-12.56-3.97Z"/>
          <path class="cls-2" d="M535.58,249.01c-3.93-3.39-6.08-8.81-6.08-22.84v-17.91c0-14.03,2.16-19.45,6.08-22.84,3.04-2.61,7.36-3.97,12.46-3.97s9.52,1.35,12.56,3.97c3.93,3.39,6.09,8.81,6.09,22.84v17.91c0,14.03-2.16,19.45-6.09,22.84-3.04,2.61-7.36,3.97-12.56,3.97s-9.42-1.36-12.46-3.97ZM554.03,228.88v-23.33c0-7.16,0-12.58-5.99-12.58s-5.89,5.42-5.89,12.58v23.33c0,7.16,0,12.58,5.89,12.58s5.99-5.42,5.99-12.58Z"/>
          <path class="cls-2" d="M575.39,244.75v-55.07l-.1-7.07h17.17l7.16,34.46c.59,2.61,1.08,6.58,1.28,9.19h.39c.29-2.61.69-6.58,1.28-9.19l7.26-34.46h16.98l-.1,7.07v55.07l.1,7.07h-11.38l.1-7.07v-33.49c0-2.81.29-6.68.39-9.19h-.49c-.29,2.52-.79,6.29-1.37,9l-8.34,40.75h-9.42l-8.34-40.75c-.59-2.71-.98-6.48-1.37-9h-.39c.1,2.52.29,6.39.29,9.19v33.49l.1,7.07h-11.29l.1-7.07Z"/>
          <path class="cls-2" d="M637.29,244.75v-55.07l-.1-7.07h17.18l7.16,34.46c.59,2.61,1.08,6.58,1.28,9.19h.39c.29-2.61.69-6.58,1.28-9.19l7.26-34.46h16.98l-.1,7.07v55.07l.1,7.07h-11.38l.1-7.07v-33.49c0-2.81.29-6.68.39-9.19h-.49c-.29,2.52-.79,6.29-1.37,9l-8.34,40.75h-9.42l-8.34-40.75c-.59-2.71-.98-6.48-1.37-9h-.39c.1,2.52.29,6.39.29,9.19v33.49l.1,7.07h-11.29l.1-7.07Z"/>
          <path class="cls-2" d="M735.01,182.62l-.1,7.07v44.72c0,11.9-7.07,18.58-18.45,18.58s-18.35-6.68-18.35-18.58v-44.72l-.1-7.07h12.66l-.1,7.07v43.36c0,5.42,1.47,8.42,5.89,8.42s5.99-3,5.99-8.42v-43.36l-.1-7.07h12.66Z"/>
          <path class="cls-2" d="M757.26,182.62l12.66,30.87c1.47,3.58,2.26,6.1,2.94,8.52h.39c-.2-2.52-.49-6.29-.49-9v-23.33l-.1-7.07h12.27l-.1,7.07v55.07l.1,7.07h-11.38l-14.03-34.94c-1.57-3.58-2.36-6.1-3.14-8.52h-.39c.2,2.52.49,6.29.49,9v27.39l.1,7.07h-12.27l.1-7.07v-55.07l-.1-7.07h12.96Z"/>
          <path class="cls-2" d="M807.96,182.62l-.1,7.07v55.07l.1,7.07h-12.66l.1-7.07v-55.07l-.1-7.07h12.66Z"/>
          <path class="cls-2" d="M822.65,249.01c-3.93-3.39-6.08-8.81-6.08-22.84v-17.91c0-14.03,2.16-19.45,6.08-22.84,3.04-2.61,7.36-3.97,12.56-3.97,5.5,0,9.72,1.55,12.46,3.97,3.93,3.39,6.09,8.9,6.09,21.29v.19h-12.66v-.19c0-8.23,0-13.74-5.89-13.74s-5.99,5.52-5.99,12.58v23.33c0,7.36,0,12.58,5.99,12.58s6.09-5.23,6.09-15.39v-.1h12.66v.1c0,14.13-2.26,19.55-6.18,22.94-3.04,2.61-7.36,3.97-12.56,3.97s-9.52-1.36-12.56-3.97Z"/>
          <path class="cls-2" d="M869.14,251.82h-12.86l12.66-69.2h17.08l12.66,69.2h-12.66l-2.36-14.13h-12.27l-2.26,14.13ZM873.16,226.56h8.73l-2.94-18.2c-.49-3.29-.98-7.74-1.18-10.16h-.59c-.1,2.42-.69,6.87-1.18,10.16l-2.85,18.2Z"/>
          <path class="cls-2" d="M920.63,193.46v51.3l.1,7.07h-12.56l.1-7.07v-51.3h-12.37v-10.84h37.2v10.84h-12.46Z"/>
          <path class="cls-2" d="M950.93,182.62l-.1,7.07v55.07l.1,7.07h-12.66l.1-7.07v-55.07l-.1-7.07h12.66Z"/>
          <path class="cls-2" d="M965.62,249.01c-3.93-3.39-6.08-8.81-6.08-22.84v-17.91c0-14.03,2.16-19.45,6.08-22.84,3.04-2.61,7.36-3.97,12.46-3.97s9.52,1.35,12.56,3.97c3.93,3.39,6.09,8.81,6.09,22.84v17.91c0,14.03-2.16,19.45-6.09,22.84-3.04,2.61-7.36,3.97-12.56,3.97s-9.42-1.36-12.46-3.97ZM984.07,228.88v-23.33c0-7.16,0-12.58-5.99-12.58s-5.89,5.42-5.89,12.58v23.33c0,7.16,0,12.58,5.89,12.58s5.99-5.42,5.99-12.58Z"/>
          <path class="cls-2" d="M1018.29,182.62l12.66,30.87c1.47,3.58,2.26,6.1,2.94,8.52h.39c-.2-2.52-.49-6.29-.49-9v-23.33l-.1-7.07h12.27l-.1,7.07v55.07l.1,7.07h-11.38l-14.03-34.94c-1.57-3.58-2.36-6.1-3.14-8.52h-.39c.2,2.52.49,6.29.49,9v27.39l.1,7.07h-12.27l.1-7.07v-55.07l-.1-7.07h12.96Z"/>
          <path class="cls-2" d="M1053.69,240.59h12.86v11.13l-6.28,12.2h-6.28l4.81-12.1h-5.1v-11.23Z"/>
          <path class="cls-2" d="M1181.49,215.43h18.84v36.39h-5.89l-2.65-5.42h-.2c-2.75,4.16-6.18,6.39-11.97,6.39-4.12,0-8.05-1.16-11.09-3.77-4.22-3.58-6.08-9.68-6.08-22.84v-17.91c0-14.03,2.16-19.45,6.08-22.84,3.14-2.71,7.56-3.97,12.46-3.97,5.2,0,9.52,1.35,12.56,3.97,3.93,3.39,6.08,8.9,6.08,21.29v.19h-12.66v-.19c0-8.23,0-13.74-5.99-13.74s-5.89,5.52-5.89,12.58v23.33c0,7.26,0,12.58,5.89,12.58,7.16,0,7.16-7.84,7.16-14.81v-.1h-6.67v-11.13Z"/>
          <path class="cls-2" d="M1221.7,223.36v21.39l.1,7.07h-12.66l.1-7.07v-55.07l-.1-7.07h17.67c15.7,0,19.53,9.19,19.53,20.42v.19c0,7.26-2.06,13.55-7.85,17.13l9.42,31.46h-13.35l-8.05-28.46h-4.81ZM1221.7,212.81h3.34c7.07,0,8.44-4.36,8.44-9.68v-.1c0-5.32-1.47-9.58-8.24-9.58h-3.53v19.36Z"/>
          <path class="cls-2" d="M1262.1,251.82h-12.86l12.66-69.2h17.08l12.66,69.2h-12.66l-2.36-14.13h-12.27l-2.26,14.13ZM1266.12,226.56h8.73l-2.94-18.2c-.49-3.29-.98-7.74-1.18-10.16h-.59c-.1,2.42-.69,6.87-1.18,10.16l-2.85,18.2Z"/>
          <path class="cls-2" d="M1296.32,244.75v-55.07l-.1-7.07h17.67c15.7,0,19.53,9.19,19.53,20.62v.19c0,11.42-3.83,20.62-19.53,20.62h-5.1v20.71l.1,7.07h-12.66l.1-7.07ZM1312.32,213.2c6.77,0,8.24-4.26,8.24-9.78v-.19c0-5.52-1.47-9.78-8.24-9.78h-3.53v19.74h3.53Z"/>
          <path class="cls-2" d="M1375.49,182.62l-.1,7.07v55.07l.1,7.07h-12.56l.1-7.07v-23.52h-12.17v23.52l.1,7.07h-12.66l.1-7.07v-55.07l-.1-7.07h12.66l-.1,7.07v20.52h12.17v-20.52l-.1-7.07h12.56Z"/>
          <path class="cls-2" d="M1398.52,182.62l-.1,7.07v55.07l.1,7.07h-12.66l.1-7.07v-55.07l-.1-7.07h12.66Z"/>
          <path class="cls-2" d="M1413.21,249.01c-3.93-3.39-6.08-8.81-6.08-22.84v-17.91c0-14.03,2.16-19.45,6.08-22.84,3.04-2.61,7.36-3.97,12.56-3.97,5.5,0,9.72,1.55,12.46,3.97,3.93,3.39,6.08,8.9,6.08,21.29v.19h-12.66v-.19c0-8.23,0-13.74-5.89-13.74s-5.99,5.52-5.99,12.58v23.33c0,7.36,0,12.58,5.99,12.58s6.09-5.23,6.09-15.39v-.1h12.66v.1c0,14.13-2.26,19.55-6.18,22.94-3.04,2.61-7.36,3.97-12.56,3.97s-9.52-1.36-12.56-3.97Z"/>
          <path class="cls-2" d="M1459.99,232.66c1.18,6.39,4.12,8.81,8.34,8.81s6.48-2.42,6.48-6c0-3.87-2.55-7.55-8.15-11.61l-6.48-4.65c-7.75-5.61-11.09-12.2-11.09-19.45,0-10.74,7.46-18.29,19.04-18.29,10.7,0,16.88,6.39,18.45,17.23l-12.27,1.65c-.69-4.65-2.65-7.36-6.58-7.36s-5.89,2.61-5.89,6.19c0,4.36,3.14,7.45,8.24,11.13l6.38,4.55c7.36,5.32,11.09,12.1,11.09,19.94,0,11.13-7.56,18.2-19.33,18.2s-18.75-6.97-20.41-18.68l12.17-1.64Z"/>
          <path class="cls-2" d="M1491.95,240.59h12.86v11.13l-6.28,12.2h-6.28l4.81-12.1h-5.1v-11.23Z"/>
          <path class="cls-2" d="M183.9,310.38l-.1,7.07v55.07l.1,7.07h-12.58l.1-7.07v-55.07l-.1-7.07h12.58Z"/>
          <path class="cls-2" d="M207.33,310.38l12.58,30.87c1.46,3.58,2.24,6.1,2.93,8.52h.39c-.19-2.52-.49-6.29-.49-9v-23.33l-.1-7.07h12.19l-.1,7.07v55.07l.1,7.07h-11.32l-13.95-34.94c-1.56-3.58-2.34-6.1-3.12-8.52h-.39c.19,2.52.49,6.29.49,9v27.39l.1,7.07h-12.19l.1-7.07v-55.07l-.1-7.07h12.88Z"/>
          <path class="cls-2" d="M252.72,360.42c1.17,6.39,4.1,8.81,8.29,8.81s6.44-2.42,6.44-6c0-3.87-2.54-7.55-8.1-11.61l-6.44-4.65c-7.71-5.61-11.02-12.2-11.02-19.45,0-10.74,7.41-18.29,18.92-18.29,10.63,0,16.78,6.39,18.34,17.23l-12.19,1.65c-.68-4.65-2.63-7.36-6.54-7.36s-5.85,2.61-5.85,6.19c0,4.36,3.12,7.45,8.19,11.13l6.34,4.55c7.32,5.32,11.02,12.1,11.02,19.94,0,11.13-7.51,18.2-19.22,18.2s-18.63-6.97-20.29-18.68l12.1-1.64Z"/>
          <path class="cls-2" d="M306.49,321.22v51.3l.1,7.07h-12.49l.1-7.07v-51.3h-12.29v-10.84h36.97v10.84h-12.39Z"/>
          <path class="cls-2" d="M329.15,379.58h-12.78l12.58-69.2h16.97l12.58,69.2h-12.58l-2.34-14.13h-12.19l-2.24,14.13ZM333.15,354.32h8.68l-2.93-18.2c-.49-3.29-.98-7.74-1.17-10.16h-.59c-.1,2.42-.68,6.87-1.17,10.16l-2.83,18.2Z"/>
          <path class="cls-2" d="M363.31,379.58l.1-7.07v-55.07l-.1-7.07h12.58l-.1,7.07v51.3h17.56v10.84h-30.05Z"/>
          <path class="cls-2" d="M398.65,379.58l.1-7.07v-55.07l-.1-7.07h12.58l-.1,7.07v51.3h17.56v10.84h-30.05Z"/>
          <path class="cls-2" d="M442.18,379.58h-12.78l12.58-69.2h16.97l12.58,69.2h-12.58l-2.34-14.13h-12.19l-2.24,14.13ZM446.18,354.32h8.68l-2.93-18.2c-.49-3.29-.98-7.74-1.17-10.16h-.59c-.1,2.42-.68,6.87-1.17,10.16l-2.83,18.2Z"/>
          <path class="cls-2" d="M493.61,321.22v51.3l.1,7.07h-12.49l.1-7.07v-51.3h-12.29v-10.84h36.97v10.84h-12.39Z"/>
          <path class="cls-2" d="M523.97,310.38l-.1,7.07v55.07l.1,7.07h-12.58l.1-7.07v-55.07l-.1-7.07h12.58Z"/>
          <path class="cls-2" d="M538.82,376.78c-3.9-3.39-6.05-8.81-6.05-22.84v-17.91c0-14.03,2.15-19.45,6.05-22.84,3.02-2.61,7.32-3.97,12.39-3.97s9.46,1.35,12.49,3.97c3.9,3.39,6.05,8.81,6.05,22.84v17.91c0,14.03-2.15,19.45-6.05,22.84-3.02,2.61-7.32,3.97-12.49,3.97s-9.36-1.36-12.39-3.97ZM557.16,356.65v-23.33c0-7.16,0-12.58-5.95-12.58s-5.85,5.42-5.85,12.58v23.33c0,7.16,0,12.58,5.85,12.58s5.95-5.42,5.95-12.58Z"/>
          <path class="cls-2" d="M591.43,310.38l12.58,30.87c1.46,3.58,2.24,6.1,2.93,8.52h.39c-.19-2.52-.49-6.29-.49-9v-23.33l-.1-7.07h12.19l-.1,7.07v55.07l.1,7.07h-11.32l-13.95-34.94c-1.56-3.58-2.34-6.1-3.12-8.52h-.39c.19,2.52.49,6.29.49,9v27.39l.1,7.07h-12.19l.1-7.07v-55.07l-.1-7.07h12.88Z"/>
          <path class="cls-2" d="M636.81,360.42c1.17,6.39,4.1,8.81,8.29,8.81s6.44-2.42,6.44-6c0-3.87-2.54-7.55-8.1-11.61l-6.44-4.65c-7.71-5.61-11.02-12.2-11.02-19.45,0-10.74,7.41-18.29,18.92-18.29,10.63,0,16.78,6.39,18.34,17.23l-12.19,1.65c-.68-4.65-2.63-7.36-6.54-7.36s-5.85,2.61-5.85,6.19c0,4.36,3.12,7.45,8.19,11.13l6.34,4.55c7.32,5.32,11.02,12.1,11.02,19.94,0,11.13-7.51,18.2-19.22,18.2s-18.63-6.97-20.29-18.68l12.1-1.64Z"/>
          <path class="cls-2" d="M668.83,368.36h12.78v11.13l-6.24,12.2h-6.24l4.78-12.1h-5.07v-11.23Z"/>
          <path class="cls-2" d="M716.48,351.13v21.39l.1,7.07h-12.58l.1-7.07v-55.07l-.1-7.07h17.56c15.61,0,19.41,9.19,19.41,20.42v.19c0,7.26-2.05,13.55-7.8,17.13l9.36,31.46h-13.27l-8-28.46h-4.78ZM716.48,340.58h3.32c7.02,0,8.39-4.36,8.39-9.68v-.1c0-5.32-1.46-9.58-8.19-9.58h-3.51v19.36Z"/>
          <path class="cls-2" d="M761.18,349v19.74h19.51v10.84h-32l.1-7.07v-55.07l-.1-7.07h31.61v10.84h-19.12v16.74h15.02v11.03h-15.02Z"/>
          <path class="cls-2" d="M796.12,360.42c1.17,6.39,4.1,8.81,8.29,8.81s6.44-2.42,6.44-6c0-3.87-2.54-7.55-8.1-11.61l-6.44-4.65c-7.71-5.61-11.02-12.2-11.02-19.45,0-10.74,7.41-18.29,18.92-18.29,10.63,0,16.78,6.39,18.34,17.23l-12.19,1.65c-.68-4.65-2.63-7.36-6.54-7.36s-5.85,2.61-5.85,6.19c0,4.36,3.12,7.45,8.19,11.13l6.34,4.55c7.32,5.32,11.02,12.1,11.02,19.94,0,11.13-7.51,18.2-19.22,18.2s-18.63-6.97-20.29-18.68l12.1-1.64Z"/>
          <path class="cls-2" d="M842.09,349v19.74h19.51v10.84h-32l.1-7.07v-55.07l-.1-7.07h31.61v10.84h-19.12v16.74h15.02v11.03h-15.02Z"/>
          <path class="cls-2" d="M876.75,379.58h-12.78l12.58-69.2h16.97l12.58,69.2h-12.58l-2.34-14.13h-12.19l-2.24,14.13ZM880.75,354.32h8.68l-2.93-18.2c-.49-3.29-.98-7.74-1.17-10.16h-.59c-.1,2.42-.68,6.87-1.17,10.16l-2.83,18.2Z"/>
          <path class="cls-2" d="M923.4,351.13v21.39l.1,7.07h-12.58l.1-7.07v-55.07l-.1-7.07h17.56c15.61,0,19.41,9.19,19.41,20.42v.19c0,7.26-2.05,13.55-7.8,17.13l9.36,31.46h-13.27l-8-28.46h-4.78ZM923.4,340.58h3.32c7.02,0,8.39-4.36,8.39-9.68v-.1c0-5.32-1.46-9.58-8.19-9.58h-3.51v19.36Z"/>
          <path class="cls-2" d="M961.08,376.78c-3.9-3.39-6.05-8.81-6.05-22.84v-17.91c0-14.03,2.15-19.45,6.05-22.84,3.02-2.61,7.32-3.97,12.49-3.97,5.46,0,9.66,1.55,12.39,3.97,3.9,3.39,6.05,8.9,6.05,21.29v.19h-12.58v-.19c0-8.23,0-13.74-5.85-13.74s-5.95,5.52-5.95,12.58v23.33c0,7.36,0,12.58,5.95,12.58s6.05-5.23,6.05-15.39v-.1h12.58v.1c0,14.13-2.24,19.55-6.15,22.94-3.02,2.61-7.32,3.97-12.49,3.97s-9.46-1.36-12.49-3.97Z"/>
          <path class="cls-2" d="M1036.31,310.38l-.1,7.07v55.07l.1,7.07h-12.49l.1-7.07v-23.52h-12.1v23.52l.1,7.07h-12.58l.1-7.07v-55.07l-.1-7.07h12.58l-.1,7.07v20.52h12.1v-20.52l-.1-7.07h12.49Z"/>
          <path class="cls-2" d="M1044.23,368.36h12.78v11.13l-6.24,12.2h-6.24l4.78-12.1h-5.07v-11.23Z"/>
          <path class="cls-2" d="M1085.79,379.58h-12.78l12.58-69.2h16.97l12.58,69.2h-12.58l-2.34-14.13h-12.19l-2.24,14.13ZM1089.79,354.32h8.68l-2.93-18.2c-.49-3.29-.98-7.74-1.17-10.16h-.59c-.1,2.42-.68,6.87-1.17,10.16l-2.83,18.2Z"/>
          <path class="cls-2" d="M1132.83,310.38l12.58,30.87c1.46,3.58,2.24,6.1,2.93,8.52h.39c-.19-2.52-.49-6.29-.49-9v-23.33l-.1-7.07h12.19l-.1,7.07v55.07l.1,7.07h-11.32l-13.95-34.94c-1.56-3.58-2.34-6.1-3.12-8.52h-.39c.19,2.52.49,6.29.49,9v27.39l.1,7.07h-12.19l.1-7.07v-55.07l-.1-7.07h12.88Z"/>
          <path class="cls-2" d="M1201.63,314.35c4.29,3.58,6.05,8.71,6.05,19.65v21.97c0,10.94-1.76,16.07-6.05,19.65-2.93,2.52-6.93,3.97-12,3.97h-18.73l.1-7.07v-55.07l-.1-7.07h18.73c5.07,0,9.07,1.45,12,3.97ZM1183.39,321.22v47.52h4.29c5.76,0,7.41-3.77,7.41-9.39v-28.75c0-5.23-1.56-9.39-7.41-9.39h-4.29Z"/>
          <path class="cls-2" d="M1230.94,379.58l.1-7.07v-55.07l-.1-7.07h16.88c12.88,0,19.32,6.87,19.32,17.52v.1c0,7.45-2.93,12.1-8.19,15.1v.39c5.95,2.71,9.76,7.74,9.76,15.49v.19c0,13.36-7.32,20.42-20.58,20.42h-17.17ZM1243.42,338.06h3.22c5.56,0,8-3.77,8-9v-.19c0-4.94-2.54-7.65-7.8-7.65h-3.41v16.84ZM1247.03,368.74c6.63,0,8.68-3.58,8.68-10.16v-.19c0-6.1-2.63-9.49-8.88-9.49h-3.41v19.84h3.61Z"/>
          <path class="cls-2" d="M1287.73,349v19.74h19.51v10.84h-32l.1-7.07v-55.07l-.1-7.07h31.61v10.84h-19.12v16.74h15.02v11.03h-15.02Z"/>
          <path class="cls-2" d="M1329.61,335.35h.39l8-24.97h12.29l-14.34,40.84v21.29l.1,7.07h-12.68l.1-7.07v-21.29l-14.44-40.84h12.58l8,24.97Z"/>
          <path class="cls-2" d="M1358.02,376.78c-3.9-3.39-6.05-8.81-6.05-22.84v-17.91c0-14.03,2.15-19.45,6.05-22.84,3.02-2.61,7.32-3.97,12.39-3.97s9.46,1.35,12.49,3.97c3.9,3.39,6.05,8.81,6.05,22.84v17.91c0,14.03-2.15,19.45-6.05,22.84-3.02,2.61-7.32,3.97-12.49,3.97s-9.36-1.36-12.39-3.97ZM1376.36,356.65v-23.33c0-7.16,0-12.58-5.95-12.58s-5.85,5.42-5.85,12.58v23.33c0,7.16,0,12.58,5.85,12.58s5.95-5.42,5.95-12.58Z"/>
          <path class="cls-2" d="M1410.62,310.38l12.58,30.87c1.46,3.58,2.24,6.1,2.93,8.52h.39c-.19-2.52-.49-6.29-.49-9v-23.33l-.1-7.07h12.19l-.1,7.07v55.07l.1,7.07h-11.32l-13.95-34.94c-1.56-3.58-2.34-6.1-3.12-8.52h-.39c.19,2.52.49,6.29.49,9v27.39l.1,7.07h-12.19l.1-7.07v-55.07l-.1-7.07h12.88Z"/>
          <path class="cls-2" d="M1479.42,314.35c4.29,3.58,6.05,8.71,6.05,19.65v21.97c0,10.94-1.76,16.07-6.05,19.65-2.93,2.52-6.93,3.97-12,3.97h-18.73l.1-7.07v-55.07l-.1-7.07h18.73c5.07,0,9.07,1.45,12,3.97ZM1461.17,321.22v47.52h4.29c5.76,0,7.41-3.77,7.41-9.39v-28.75c0-5.23-1.56-9.39-7.41-9.39h-4.29Z"/>
          <path class="cls-2" d="M1493.1,368.36h11.61v11.23h-11.61v-11.23Z"/>
          <path class="cls-2" d="M179.35,536.94h-12.62l12.43-69.2h16.77l12.43,69.2h-12.43l-2.31-14.13h-12.05l-2.22,14.13ZM183.3,511.68h8.58l-2.89-18.2c-.48-3.29-.96-7.74-1.16-10.16h-.58c-.1,2.42-.67,6.87-1.16,10.16l-2.79,18.2Z"/>
          <path class="cls-2" d="M212.68,536.94l.1-7.07v-55.07l-.1-7.07h16.67c12.72,0,19.08,6.87,19.08,17.52v.1c0,7.45-2.89,12.1-8.09,15.1v.39c5.88,2.71,9.64,7.74,9.64,15.49v.19c0,13.36-7.23,20.42-20.33,20.42h-16.96ZM225.02,495.42h3.18c5.49,0,7.9-3.77,7.9-9v-.19c0-4.94-2.51-7.65-7.71-7.65h-3.37v16.84ZM228.58,526.1c6.55,0,8.58-3.58,8.58-10.16v-.19c0-6.1-2.6-9.49-8.77-9.49h-3.37v19.84h3.57Z"/>
          <path class="cls-2" d="M261.44,534.14c-3.85-3.39-5.97-8.81-5.97-22.84v-17.91c0-14.03,2.12-19.45,5.97-22.84,2.99-2.61,7.23-3.97,12.24-3.97s9.35,1.35,12.34,3.97c3.85,3.39,5.97,8.81,5.97,22.84v17.91c0,14.03-2.12,19.45-5.97,22.84-2.99,2.61-7.23,3.97-12.34,3.97s-9.25-1.36-12.24-3.97ZM279.56,514.01v-23.33c0-7.16,0-12.58-5.88-12.58s-5.78,5.42-5.78,12.58v23.33c0,7.16,0,12.58,5.78,12.58s5.88-5.42,5.88-12.58Z"/>
          <path class="cls-2" d="M324.46,467.74h12.34l-13.97,69.2h-13.59l-13.97-69.2h12.62l6.75,36.39c.48,3.19,1.06,7.74,1.25,10.94h.48c.19-3.19.77-7.74,1.25-10.94l6.84-36.39Z"/>
          <path class="cls-2" d="M352.88,506.36v19.74h19.27v10.84h-31.61l.1-7.07v-55.07l-.1-7.07h31.22v10.84h-18.89v16.74h14.84v11.03h-14.84Z"/>
          <path class="cls-2" d="M397.02,536.94h-12.62l12.43-69.2h16.77l12.43,69.2h-12.43l-2.31-14.13h-12.05l-2.22,14.13ZM400.97,511.68h8.58l-2.89-18.2c-.48-3.29-.96-7.74-1.16-10.16h-.58c-.1,2.42-.67,6.87-1.16,10.16l-2.79,18.2Z"/>
          <path class="cls-2" d="M430.36,536.94l.1-7.07v-55.07l-.1-7.07h12.43l-.1,7.07v51.3h17.35v10.84h-29.68Z"/>
          <path class="cls-2" d="M464.85,536.94l.1-7.07v-55.07l-.1-7.07h12.43l-.1,7.07v51.3h17.35v10.84h-29.68Z"/>
          <path class="cls-2" d="M497.9,525.72h12.62v11.13l-6.17,12.2h-6.17l4.72-12.1h-5.01v-11.23Z"/>
          <path class="cls-2" d="M526.08,456.6h15.72l6.08,44.94c.51,3.69.89,8.15,1.01,11.71h.51c.25-3.56.63-8.02,1.27-11.71l7.1-44.94h13.94l7.23,44.94c.63,3.69.89,8.15,1.14,11.71h.51c.13-3.56.51-8.02,1.01-11.71l6.21-44.94h15.46l-14.32,91.02h-15.59l-7.35-41.76c-.63-3.69-.89-8.15-1.14-11.71h-.51c-.13,3.56-.38,8.02-1.01,11.71l-7.48,41.76h-15.59l-14.2-91.02Z"/>
          <path class="cls-2" d="M625.83,507.39v25.97h25.35v14.26h-41.58l.13-9.29v-72.44l-.13-9.29h41.07v14.26h-24.84v22.02h19.52v14.51h-19.52Z"/>
          <path class="cls-2" d="M675.13,547.62l.13-9.29v-72.44l-.13-9.29h21.93c16.73,0,25.1,9.04,25.1,23.04v.13c0,9.8-3.8,15.91-10.65,19.86v.51c7.73,3.56,12.68,10.18,12.68,20.37v.25c0,17.57-9.51,26.86-26.75,26.86h-22.31ZM691.36,493.01h4.18c7.22,0,10.39-4.96,10.39-11.84v-.25c0-6.49-3.3-10.06-10.14-10.06h-4.44v22.15ZM696.05,533.37c8.62,0,11.28-4.71,11.28-13.37v-.25c0-8.02-3.42-12.48-11.53-12.48h-4.44v26.1h4.69Z"/>
          <path class="cls-2" d="M748.38,507.39v25.97h25.35v14.26h-41.58l.13-9.29v-72.44l-.13-9.29h41.07v14.26h-24.84v22.02h19.52v14.51h-19.52Z"/>
          <path class="cls-2" d="M782.22,547.62l.13-9.29v-72.44l-.13-9.29h16.35l-.13,9.29v67.47h22.82v14.26h-39.04Z"/>
          <path class="cls-2" d="M843.93,456.6l-.13,9.29v72.44l.13,9.29h-16.35l.13-9.29v-72.44l-.13-9.29h16.35Z"/>
          <path class="cls-2" d="M873.33,507.39v25.97h25.35v14.26h-41.58l.13-9.29v-72.44l-.13-9.29h41.07v14.26h-24.84v22.02h19.52v14.51h-19.52Z"/>
          <path class="cls-2" d="M938.97,456.6h16.22l-18.38,91.02h-17.87l-18.38-91.02h16.6l8.87,47.87c.63,4.2,1.39,10.18,1.65,14.38h.63c.25-4.2,1.01-10.18,1.65-14.38l9-47.87Z"/>
          <path class="cls-2" d="M976.35,507.39v25.97h25.35v14.26h-41.58l.13-9.29v-72.44l-.13-9.29h41.07v14.26h-24.84v22.02h19.52v14.51h-19.52Z"/>
          <path class="cls-2" d="M1042.01,456.6l-.13,9.29v72.44l.13,9.29h-16.35l.13-9.29v-72.44l-.13-9.29h16.35Z"/>
          <path class="cls-2" d="M1071.91,456.6l16.35,40.61c1.9,4.71,2.92,8.02,3.8,11.2h.51c-.25-3.31-.63-8.27-.63-11.84v-30.68l-.13-9.29h15.84l-.13,9.29v72.44l.13,9.29h-14.7l-18.13-45.96c-2.03-4.71-3.04-8.02-4.06-11.2h-.51c.25,3.31.63,8.27.63,11.84v36.03l.13,9.29h-15.84l.13-9.29v-72.44l-.13-9.29h16.73Z"/>
          <path class="cls-2" d="M1174.71,461.82c5.58,4.71,7.86,11.46,7.86,25.84v28.9c0,14.39-2.28,21.13-7.86,25.84-3.8,3.31-9,5.22-15.59,5.22h-24.34l.13-9.29v-72.44l-.13-9.29h24.34c6.59,0,11.79,1.91,15.59,5.22ZM1151,470.86v62.51h5.58c7.48,0,9.63-4.97,9.63-12.35v-37.81c0-6.87-2.03-12.35-9.63-12.35h-5.58Z"/>
          <path class="cls-2" d="M1209.81,510.2v28.13l.13,9.29h-16.35l.13-9.29v-72.44l-.13-9.29h22.82c20.28,0,25.22,12.09,25.22,26.86v.25c0,9.55-2.66,17.82-10.14,22.53l12.17,41.37h-17.24l-10.39-37.43h-6.21ZM1209.81,496.32h4.31c9.13,0,10.9-5.73,10.9-12.73v-.13c0-7-1.9-12.6-10.65-12.6h-4.56v25.46Z"/>
          <path class="cls-2" d="M1267.34,507.39v25.97h25.35v14.26h-41.58l.13-9.29v-72.44l-.13-9.29h41.07v14.26h-24.84v22.02h19.52v14.51h-19.52Z"/>
          <path class="cls-2" d="M1311.82,547.62h-16.6l16.35-91.02h22.06l16.35,91.02h-16.35l-3.04-18.59h-15.84l-2.92,18.59ZM1317.02,514.4h11.28l-3.8-23.93c-.63-4.33-1.27-10.18-1.52-13.37h-.76c-.13,3.18-.89,9.04-1.52,13.37l-3.68,23.93Z"/>
          <path class="cls-2" d="M1355.79,538.33v-72.44l-.13-9.29h22.18l9.25,45.32c.76,3.44,1.39,8.66,1.65,12.09h.51c.38-3.44.89-8.66,1.65-12.09l9.38-45.32h21.93l-.13,9.29v72.44l.13,9.29h-14.7l.13-9.29v-44.05c0-3.69.38-8.78.51-12.09h-.63c-.38,3.31-1.01,8.27-1.77,11.84l-10.77,53.6h-12.17l-10.77-53.6c-.76-3.56-1.27-8.53-1.77-11.84h-.51c.13,3.31.38,8.4.38,12.09v44.05l.13,9.29h-14.58l.13-9.29Z"/>
          <path class="cls-2" d="M1444.89,522.42c1.52,8.4,5.32,11.58,10.77,11.58s8.37-3.18,8.37-7.89c0-5.09-3.3-9.93-10.52-15.28l-8.37-6.11c-10.01-7.38-14.32-16.04-14.32-25.59,0-14.13,9.63-24.06,24.59-24.06,13.82,0,21.8,8.4,23.83,22.66l-15.84,2.16c-.89-6.11-3.42-9.68-8.49-9.68s-7.61,3.44-7.61,8.15c0,5.73,4.06,9.8,10.65,14.64l8.24,5.98c9.51,7,14.32,15.91,14.32,26.22,0,14.64-9.76,23.93-24.97,23.93s-24.21-9.17-26.36-24.57l15.72-2.16Z"/>
          <path class="cls-2" d="M1486.2,532.86h15.08v14.77h-15.08v-14.77Z"/>
        </g>
      </g>
      <g class="cls-5">
        <g>
          <path class="cls-4" d="M179.57,124.06h-12.84l12.65-69.2h17.06l12.65,69.2h-12.65l-2.35-14.13h-12.25l-2.25,14.13ZM183.59,98.79h8.72l-2.94-18.2c-.49-3.29-.98-7.74-1.18-10.16h-.59c-.1,2.42-.69,6.87-1.18,10.16l-2.84,18.2Z"/>
          <path class="cls-4" d="M226.03,95.6v21.39l.1,7.07h-12.65l.1-7.07v-55.07l-.1-7.07h17.65c15.68,0,19.51,9.19,19.51,20.42v.19c0,7.26-2.06,13.55-7.84,17.13l9.41,31.46h-13.33l-8.04-28.46h-4.8ZM226.03,85.05h3.33c7.06,0,8.43-4.36,8.43-9.68v-.1c0-5.32-1.47-9.58-8.24-9.58h-3.53v19.36Z"/>
          <path class="cls-4" d="M275.82,65.69v51.3l.1,7.07h-12.55l.1-7.07v-51.3h-12.35v-10.84h37.15v10.84h-12.45Z"/>
          <path class="cls-4" d="M288.26,112.83h12.84v11.13l-6.27,12.2h-6.27l4.8-12.1h-5.1v-11.23Z"/>
          <path class="cls-4" d="M432.72,58.82c4.31,3.58,6.08,8.71,6.08,19.65v21.97c0,10.94-1.76,16.07-6.08,19.65-2.94,2.52-6.96,3.97-12.06,3.97h-18.82l.1-7.07v-55.07l-.1-7.07h18.82c5.1,0,9.12,1.45,12.06,3.97ZM414.39,65.69v47.52h4.31c5.78,0,7.45-3.77,7.45-9.39v-28.75c0-5.23-1.57-9.39-7.45-9.39h-4.31Z"/>
          <path class="cls-4" d="M459.87,93.47v19.74h19.61v10.84h-32.15l.1-7.07v-55.07l-.1-7.07h31.76v10.84h-19.21v16.74h15.1v11.03h-15.1Z"/>
          <path class="cls-4" d="M494.56,104.89c1.18,6.39,4.12,8.81,8.33,8.81s6.47-2.42,6.47-6c0-3.87-2.55-7.55-8.14-11.61l-6.47-4.65c-7.74-5.61-11.08-12.2-11.08-19.45,0-10.74,7.45-18.29,19.02-18.29,10.69,0,16.86,6.39,18.43,17.23l-12.25,1.65c-.69-4.65-2.65-7.36-6.57-7.36s-5.88,2.61-5.88,6.19c0,4.36,3.14,7.45,8.23,11.13l6.37,4.55c7.35,5.32,11.08,12.1,11.08,19.94,0,11.13-7.55,18.2-19.31,18.2s-18.72-6.97-20.39-18.68l12.16-1.64Z"/>
          <path class="cls-4" d="M540.43,54.85l-.1,7.07v55.07l.1,7.07h-12.65l.1-7.07v-55.07l-.1-7.07h12.65Z"/>
          <path class="cls-4" d="M567.87,87.66h18.82v36.39h-5.88l-2.65-5.42h-.2c-2.75,4.16-6.18,6.39-11.96,6.39-4.12,0-8.04-1.16-11.08-3.77-4.22-3.58-6.08-9.68-6.08-22.84v-17.91c0-14.03,2.16-19.45,6.08-22.84,3.14-2.71,7.55-3.97,12.45-3.97,5.2,0,9.51,1.35,12.55,3.97,3.92,3.39,6.08,8.9,6.08,21.29v.19h-12.65v-.19c0-8.23,0-13.74-5.98-13.74s-5.88,5.52-5.88,12.58v23.33c0,7.26,0,12.58,5.88,12.58,7.16,0,7.16-7.84,7.16-14.81v-.1h-6.67v-11.13Z"/>
          <path class="cls-4" d="M608.26,54.85l12.65,30.87c1.47,3.58,2.25,6.1,2.94,8.52h.39c-.2-2.52-.49-6.29-.49-9v-23.33l-.1-7.07h12.25l-.1,7.07v55.07l.1,7.07h-11.37l-14.02-34.94c-1.57-3.58-2.35-6.1-3.14-8.52h-.39c.2,2.52.49,6.29.49,9v27.39l.1,7.07h-12.25l.1-7.07v-55.07l-.1-7.07h12.94Z"/>
          <path class="cls-4" d="M643.44,112.83h12.84v11.13l-6.27,12.2h-6.27l4.8-12.1h-5.1v-11.23Z"/>
          <path class="cls-4" d="M769.57,93.47v23.52l.1,7.07h-12.65l.1-7.07v-55.07l-.1-7.07h31.66v10.84h-19.12v16.74h15.1v11.03h-15.1Z"/>
          <path class="cls-4" d="M805.64,54.85l-.1,7.07v55.07l.1,7.07h-12.65l.1-7.07v-55.07l-.1-7.07h12.65Z"/>
          <path class="cls-4" d="M815.82,124.06l.1-7.07v-55.07l-.1-7.07h12.65l-.1,7.07v51.3h17.65v10.84h-30.19Z"/>
          <path class="cls-4" d="M851.01,116.99v-55.07l-.1-7.07h17.16l7.16,34.46c.59,2.61,1.08,6.58,1.27,9.19h.39c.29-2.61.69-6.58,1.27-9.19l7.25-34.46h16.96l-.1,7.07v55.07l.1,7.07h-11.37l.1-7.07v-33.49c0-2.81.29-6.68.39-9.19h-.49c-.29,2.52-.78,6.29-1.37,9l-8.33,40.75h-9.41l-8.33-40.75c-.59-2.71-.98-6.48-1.37-9h-.39c.1,2.52.29,6.39.29,9.19v33.49l.1,7.07h-11.27l.1-7.07Z"/>
          <path class="cls-4" d="M909.92,112.83h12.84v11.13l-6.27,12.2h-6.27l4.8-12.1h-5.1v-11.23Z"/>
          <path class="cls-4" d="M1023.59,116.99v-55.07l-.1-7.07h17.65c15.68,0,19.51,9.19,19.51,20.62v.19c0,11.42-3.82,20.62-19.51,20.62h-5.1v20.71l.1,7.07h-12.65l.1-7.07ZM1039.57,85.44c6.76,0,8.24-4.26,8.24-9.78v-.19c0-5.52-1.47-9.78-8.24-9.78h-3.53v19.74h3.53Z"/>
          <path class="cls-4" d="M1102.5,54.85l-.1,7.07v55.07l.1,7.07h-12.55l.1-7.07v-23.52h-12.16v23.52l.1,7.07h-12.65l.1-7.07v-55.07l-.1-7.07h12.65l-.1,7.07v20.52h12.16v-20.52l-.1-7.07h12.55Z"/>
          <path class="cls-4" d="M1117,121.25c-3.92-3.39-6.08-8.81-6.08-22.84v-17.91c0-14.03,2.16-19.45,6.08-22.84,3.04-2.61,7.35-3.97,12.45-3.97s9.51,1.35,12.55,3.97c3.92,3.39,6.08,8.81,6.08,22.84v17.91c0,14.03-2.16,19.45-6.08,22.84-3.04,2.61-7.35,3.97-12.55,3.97s-9.41-1.36-12.45-3.97ZM1135.43,101.12v-23.33c0-7.16,0-12.58-5.98-12.58s-5.88,5.42-5.88,12.58v23.33c0,7.16,0,12.58,5.88,12.58s5.98-5.42,5.98-12.58Z"/>
          <path class="cls-4" d="M1175.62,65.69v51.3l.1,7.07h-12.55l.1-7.07v-51.3h-12.35v-10.84h37.15v10.84h-12.45Z"/>
          <path class="cls-4" d="M1196.98,121.25c-3.92-3.39-6.08-8.81-6.08-22.84v-17.91c0-14.03,2.16-19.45,6.08-22.84,3.04-2.61,7.35-3.97,12.45-3.97s9.51,1.35,12.55,3.97c3.92,3.39,6.08,8.81,6.08,22.84v17.91c0,14.03-2.16,19.45-6.08,22.84-3.04,2.61-7.35,3.97-12.55,3.97s-9.41-1.36-12.45-3.97ZM1215.41,101.12v-23.33c0-7.16,0-12.58-5.98-12.58s-5.88,5.42-5.88,12.58v23.33c0,7.16,0,12.58,5.88,12.58s5.98-5.42,5.98-12.58Z"/>
          <path class="cls-4" d="M1254.91,87.66h18.82v36.39h-5.88l-2.65-5.42h-.2c-2.75,4.16-6.18,6.39-11.96,6.39-4.12,0-8.04-1.16-11.08-3.77-4.22-3.58-6.08-9.68-6.08-22.84v-17.91c0-14.03,2.16-19.45,6.08-22.84,3.14-2.71,7.55-3.97,12.45-3.97,5.2,0,9.51,1.35,12.55,3.97,3.92,3.39,6.08,8.9,6.08,21.29v.19h-12.65v-.19c0-8.23,0-13.74-5.98-13.74s-5.88,5.52-5.88,12.58v23.33c0,7.26,0,12.58,5.88,12.58,7.16,0,7.16-7.84,7.16-14.81v-.1h-6.67v-11.13Z"/>
          <path class="cls-4" d="M1294.9,95.6v21.39l.1,7.07h-12.65l.1-7.07v-55.07l-.1-7.07h17.65c15.68,0,19.51,9.19,19.51,20.42v.19c0,7.26-2.06,13.55-7.84,17.13l9.41,31.46h-13.33l-8.04-28.46h-4.8ZM1294.9,85.05h3.33c7.06,0,8.43-4.36,8.43-9.68v-.1c0-5.32-1.47-9.58-8.24-9.58h-3.53v19.36Z"/>
          <path class="cls-4" d="M1335.09,124.06h-12.84l12.65-69.2h17.06l12.65,69.2h-12.65l-2.35-14.13h-12.25l-2.25,14.13ZM1339.1,98.79h8.72l-2.94-18.2c-.49-3.29-.98-7.74-1.18-10.16h-.59c-.1,2.42-.69,6.87-1.18,10.16l-2.84,18.2Z"/>
          <path class="cls-4" d="M1369.09,116.99v-55.07l-.1-7.07h17.65c15.68,0,19.51,9.19,19.51,20.62v.19c0,11.42-3.82,20.62-19.51,20.62h-5.1v20.71l.1,7.07h-12.65l.1-7.07ZM1385.07,85.44c6.76,0,8.24-4.26,8.24-9.78v-.19c0-5.52-1.47-9.78-8.24-9.78h-3.53v19.74h3.53Z"/>
          <path class="cls-4" d="M1448,54.85l-.1,7.07v55.07l.1,7.07h-12.55l.1-7.07v-23.52h-12.16v23.52l.1,7.07h-12.65l.1-7.07v-55.07l-.1-7.07h12.65l-.1,7.07v20.52h12.16v-20.52l-.1-7.07h12.55Z"/>
          <path class="cls-4" d="M1472.5,79.82h.39l8.04-24.97h12.35l-14.41,40.84v21.29l.1,7.07h-12.74l.1-7.07v-21.29l-14.51-40.84h12.65l8.04,24.97Z"/>
          <path class="cls-4" d="M1492,112.83h12.84v11.13l-6.27,12.2h-6.27l4.8-12.1h-5.1v-11.23Z"/>
          <path class="cls-4" d="M195.97,182.62h12.56l-14.23,69.2h-13.84l-14.23-69.2h12.86l6.87,36.39c.49,3.19,1.08,7.74,1.28,10.94h.49c.2-3.19.78-7.74,1.28-10.94l6.97-36.39Z"/>
          <path class="cls-4" d="M225.19,182.62l-.1,7.07v55.07l.1,7.07h-12.66l.1-7.07v-55.07l-.1-7.07h12.66Z"/>
          <path class="cls-4" d="M242.92,232.66c1.18,6.39,4.12,8.81,8.34,8.81s6.48-2.42,6.48-6c0-3.87-2.55-7.55-8.15-11.61l-6.48-4.65c-7.75-5.61-11.09-12.2-11.09-19.45,0-10.74,7.46-18.29,19.04-18.29,10.7,0,16.88,6.39,18.45,17.23l-12.27,1.65c-.69-4.65-2.65-7.36-6.58-7.36s-5.89,2.61-5.89,6.19c0,4.36,3.14,7.45,8.24,11.13l6.38,4.55c7.36,5.32,11.09,12.1,11.09,19.94,0,11.13-7.56,18.2-19.33,18.2s-18.75-6.97-20.41-18.68l12.17-1.64Z"/>
          <path class="cls-4" d="M312.86,182.62l-.1,7.07v44.72c0,11.9-7.07,18.58-18.45,18.58s-18.35-6.68-18.35-18.58v-44.72l-.1-7.07h12.66l-.1,7.07v43.36c0,5.42,1.47,8.42,5.89,8.42s5.99-3,5.99-8.42v-43.36l-.1-7.07h12.66Z"/>
          <path class="cls-4" d="M329.81,251.82h-12.86l12.66-69.2h17.08l12.66,69.2h-12.66l-2.36-14.13h-12.27l-2.26,14.13ZM333.83,226.56h8.73l-2.94-18.2c-.49-3.29-.98-7.74-1.18-10.16h-.59c-.1,2.42-.69,6.87-1.18,10.16l-2.85,18.2Z"/>
          <path class="cls-4" d="M363.93,251.82l.1-7.07v-55.07l-.1-7.07h12.66l-.1,7.07v51.3h17.67v10.84h-30.23Z"/>
          <path class="cls-4" d="M491.83,249.01c-3.93-3.39-6.08-8.81-6.08-22.84v-17.91c0-14.03,2.16-19.45,6.08-22.84,3.04-2.61,7.36-3.97,12.56-3.97,5.5,0,9.72,1.55,12.46,3.97,3.93,3.39,6.09,8.9,6.09,21.29v.19h-12.66v-.19c0-8.23,0-13.74-5.89-13.74s-5.99,5.52-5.99,12.58v23.33c0,7.36,0,12.58,5.99,12.58s6.09-5.23,6.09-15.39v-.1h12.66v.1c0,14.13-2.26,19.55-6.18,22.94-3.04,2.61-7.36,3.97-12.56,3.97s-9.52-1.36-12.56-3.97Z"/>
          <path class="cls-4" d="M535.57,249.01c-3.93-3.39-6.08-8.81-6.08-22.84v-17.91c0-14.03,2.16-19.45,6.08-22.84,3.04-2.61,7.36-3.97,12.46-3.97s9.52,1.35,12.56,3.97c3.93,3.39,6.09,8.81,6.09,22.84v17.91c0,14.03-2.16,19.45-6.09,22.84-3.04,2.61-7.36,3.97-12.56,3.97s-9.42-1.36-12.46-3.97ZM554.02,228.88v-23.33c0-7.16,0-12.58-5.99-12.58s-5.89,5.42-5.89,12.58v23.33c0,7.16,0,12.58,5.89,12.58s5.99-5.42,5.99-12.58Z"/>
          <path class="cls-4" d="M575.39,244.76v-55.07l-.1-7.07h17.17l7.16,34.46c.59,2.61,1.08,6.58,1.28,9.19h.39c.29-2.61.69-6.58,1.28-9.19l7.26-34.46h16.98l-.1,7.07v55.07l.1,7.07h-11.38l.1-7.07v-33.49c0-2.81.29-6.68.39-9.19h-.49c-.29,2.52-.79,6.29-1.37,9l-8.34,40.75h-9.42l-8.34-40.75c-.59-2.71-.98-6.48-1.37-9h-.39c.1,2.52.29,6.39.29,9.19v33.49l.1,7.07h-11.29l.1-7.07Z"/>
          <path class="cls-4" d="M637.28,244.76v-55.07l-.1-7.07h17.18l7.16,34.46c.59,2.61,1.08,6.58,1.28,9.19h.39c.29-2.61.69-6.58,1.28-9.19l7.26-34.46h16.98l-.1,7.07v55.07l.1,7.07h-11.38l.1-7.07v-33.49c0-2.81.29-6.68.39-9.19h-.49c-.29,2.52-.79,6.29-1.37,9l-8.34,40.75h-9.42l-8.34-40.75c-.59-2.71-.98-6.48-1.37-9h-.39c.1,2.52.29,6.39.29,9.19v33.49l.1,7.07h-11.29l.1-7.07Z"/>
          <path class="cls-4" d="M735,182.62l-.1,7.07v44.72c0,11.9-7.07,18.58-18.45,18.58s-18.35-6.68-18.35-18.58v-44.72l-.1-7.07h12.66l-.1,7.07v43.36c0,5.42,1.47,8.42,5.89,8.42s5.99-3,5.99-8.42v-43.36l-.1-7.07h12.66Z"/>
          <path class="cls-4" d="M757.25,182.62l12.66,30.87c1.47,3.58,2.26,6.1,2.94,8.52h.39c-.2-2.52-.49-6.29-.49-9v-23.33l-.1-7.07h12.27l-.1,7.07v55.07l.1,7.07h-11.38l-14.03-34.94c-1.57-3.58-2.36-6.1-3.14-8.52h-.39c.2,2.52.49,6.29.49,9v27.39l.1,7.07h-12.27l.1-7.07v-55.07l-.1-7.07h12.96Z"/>
          <path class="cls-4" d="M807.96,182.62l-.1,7.07v55.07l.1,7.07h-12.66l.1-7.07v-55.07l-.1-7.07h12.66Z"/>
          <path class="cls-4" d="M822.64,249.01c-3.93-3.39-6.08-8.81-6.08-22.84v-17.91c0-14.03,2.16-19.45,6.08-22.84,3.04-2.61,7.36-3.97,12.56-3.97,5.5,0,9.72,1.55,12.46,3.97,3.93,3.39,6.09,8.9,6.09,21.29v.19h-12.66v-.19c0-8.23,0-13.74-5.89-13.74s-5.99,5.52-5.99,12.58v23.33c0,7.36,0,12.58,5.99,12.58s6.09-5.23,6.09-15.39v-.1h12.66v.1c0,14.13-2.26,19.55-6.18,22.94-3.04,2.61-7.36,3.97-12.56,3.97s-9.52-1.36-12.56-3.97Z"/>
          <path class="cls-4" d="M869.13,251.82h-12.86l12.66-69.2h17.08l12.66,69.2h-12.66l-2.36-14.13h-12.27l-2.26,14.13ZM873.16,226.56h8.73l-2.94-18.2c-.49-3.29-.98-7.74-1.18-10.16h-.59c-.1,2.42-.69,6.87-1.18,10.16l-2.85,18.2Z"/>
          <path class="cls-4" d="M920.63,193.46v51.3l.1,7.07h-12.56l.1-7.07v-51.3h-12.37v-10.84h37.2v10.84h-12.46Z"/>
          <path class="cls-4" d="M950.92,182.62l-.1,7.07v55.07l.1,7.07h-12.66l.1-7.07v-55.07l-.1-7.07h12.66Z"/>
          <path class="cls-4" d="M965.61,249.01c-3.93-3.39-6.08-8.81-6.08-22.84v-17.91c0-14.03,2.16-19.45,6.08-22.84,3.04-2.61,7.36-3.97,12.46-3.97s9.52,1.35,12.56,3.97c3.93,3.39,6.09,8.81,6.09,22.84v17.91c0,14.03-2.16,19.45-6.09,22.84-3.04,2.61-7.36,3.97-12.56,3.97s-9.42-1.36-12.46-3.97ZM984.06,228.88v-23.33c0-7.16,0-12.58-5.99-12.58s-5.89,5.42-5.89,12.58v23.33c0,7.16,0,12.58,5.89,12.58s5.99-5.42,5.99-12.58Z"/>
          <path class="cls-4" d="M1018.28,182.62l12.66,30.87c1.47,3.58,2.26,6.1,2.94,8.52h.39c-.2-2.52-.49-6.29-.49-9v-23.33l-.1-7.07h12.27l-.1,7.07v55.07l.1,7.07h-11.38l-14.03-34.94c-1.57-3.58-2.36-6.1-3.14-8.52h-.39c.2,2.52.49,6.29.49,9v27.39l.1,7.07h-12.27l.1-7.07v-55.07l-.1-7.07h12.96Z"/>
          <path class="cls-4" d="M1053.68,240.59h12.86v11.13l-6.28,12.2h-6.28l4.81-12.1h-5.1v-11.23Z"/>
          <path class="cls-4" d="M1181.48,215.43h18.84v36.39h-5.89l-2.65-5.42h-.2c-2.75,4.16-6.18,6.39-11.97,6.39-4.12,0-8.05-1.16-11.09-3.77-4.22-3.58-6.08-9.68-6.08-22.84v-17.91c0-14.03,2.16-19.45,6.08-22.84,3.14-2.71,7.56-3.97,12.46-3.97,5.2,0,9.52,1.35,12.56,3.97,3.93,3.39,6.08,8.9,6.08,21.29v.19h-12.66v-.19c0-8.23,0-13.74-5.99-13.74s-5.89,5.52-5.89,12.58v23.33c0,7.26,0,12.58,5.89,12.58,7.16,0,7.16-7.84,7.16-14.81v-.1h-6.67v-11.13Z"/>
          <path class="cls-4" d="M1221.69,223.37v21.39l.1,7.07h-12.66l.1-7.07v-55.07l-.1-7.07h17.67c15.7,0,19.53,9.19,19.53,20.42v.19c0,7.26-2.06,13.55-7.85,17.13l9.42,31.46h-13.35l-8.05-28.46h-4.81ZM1221.69,212.82h3.34c7.07,0,8.44-4.36,8.44-9.68v-.1c0-5.32-1.47-9.58-8.24-9.58h-3.53v19.36Z"/>
          <path class="cls-4" d="M1262.09,251.82h-12.86l12.66-69.2h17.08l12.66,69.2h-12.66l-2.36-14.13h-12.27l-2.26,14.13ZM1266.12,226.56h8.73l-2.94-18.2c-.49-3.29-.98-7.74-1.18-10.16h-.59c-.1,2.42-.69,6.87-1.18,10.16l-2.85,18.2Z"/>
          <path class="cls-4" d="M1296.31,244.76v-55.07l-.1-7.07h17.67c15.7,0,19.53,9.19,19.53,20.62v.19c0,11.42-3.83,20.62-19.53,20.62h-5.1v20.71l.1,7.07h-12.66l.1-7.07ZM1312.31,213.2c6.77,0,8.24-4.26,8.24-9.78v-.19c0-5.52-1.47-9.78-8.24-9.78h-3.53v19.74h3.53Z"/>
          <path class="cls-4" d="M1375.48,182.62l-.1,7.07v55.07l.1,7.07h-12.56l.1-7.07v-23.52h-12.17v23.52l.1,7.07h-12.66l.1-7.07v-55.07l-.1-7.07h12.66l-.1,7.07v20.52h12.17v-20.52l-.1-7.07h12.56Z"/>
          <path class="cls-4" d="M1398.51,182.62l-.1,7.07v55.07l.1,7.07h-12.66l.1-7.07v-55.07l-.1-7.07h12.66Z"/>
          <path class="cls-4" d="M1413.2,249.01c-3.93-3.39-6.08-8.81-6.08-22.84v-17.91c0-14.03,2.16-19.45,6.08-22.84,3.04-2.61,7.36-3.97,12.56-3.97,5.5,0,9.72,1.55,12.46,3.97,3.93,3.39,6.08,8.9,6.08,21.29v.19h-12.66v-.19c0-8.23,0-13.74-5.89-13.74s-5.99,5.52-5.99,12.58v23.33c0,7.36,0,12.58,5.99,12.58s6.09-5.23,6.09-15.39v-.1h12.66v.1c0,14.13-2.26,19.55-6.18,22.94-3.04,2.61-7.36,3.97-12.56,3.97s-9.52-1.36-12.56-3.97Z"/>
          <path class="cls-4" d="M1459.99,232.66c1.18,6.39,4.12,8.81,8.34,8.81s6.48-2.42,6.48-6c0-3.87-2.55-7.55-8.15-11.61l-6.48-4.65c-7.75-5.61-11.09-12.2-11.09-19.45,0-10.74,7.46-18.29,19.04-18.29,10.7,0,16.88,6.39,18.45,17.23l-12.27,1.65c-.69-4.65-2.65-7.36-6.58-7.36s-5.89,2.61-5.89,6.19c0,4.36,3.14,7.45,8.24,11.13l6.38,4.55c7.36,5.32,11.09,12.1,11.09,19.94,0,11.13-7.56,18.2-19.33,18.2s-18.75-6.97-20.41-18.68l12.17-1.64Z"/>
          <path class="cls-4" d="M1491.95,240.59h12.86v11.13l-6.28,12.2h-6.28l4.81-12.1h-5.1v-11.23Z"/>
          <path class="cls-4" d="M183.89,310.38l-.1,7.07v55.07l.1,7.07h-12.58l.1-7.07v-55.07l-.1-7.07h12.58Z"/>
          <path class="cls-4" d="M207.32,310.38l12.58,30.87c1.46,3.58,2.24,6.1,2.93,8.52h.39c-.19-2.52-.49-6.29-.49-9v-23.33l-.1-7.07h12.19l-.1,7.07v55.07l.1,7.07h-11.32l-13.95-34.94c-1.56-3.58-2.34-6.1-3.12-8.52h-.39c.19,2.52.49,6.29.49,9v27.39l.1,7.07h-12.19l.1-7.07v-55.07l-.1-7.07h12.88Z"/>
          <path class="cls-4" d="M252.71,360.42c1.17,6.39,4.1,8.81,8.29,8.81s6.44-2.42,6.44-6c0-3.87-2.54-7.55-8.1-11.61l-6.44-4.65c-7.71-5.61-11.02-12.2-11.02-19.45,0-10.74,7.41-18.29,18.92-18.29,10.63,0,16.78,6.39,18.34,17.23l-12.19,1.65c-.68-4.65-2.63-7.36-6.54-7.36s-5.85,2.61-5.85,6.19c0,4.36,3.12,7.45,8.19,11.13l6.34,4.55c7.32,5.32,11.02,12.1,11.02,19.94,0,11.13-7.51,18.2-19.22,18.2s-18.63-6.97-20.29-18.68l12.1-1.64Z"/>
          <path class="cls-4" d="M306.48,321.22v51.3l.1,7.07h-12.49l.1-7.07v-51.3h-12.29v-10.84h36.97v10.84h-12.39Z"/>
          <path class="cls-4" d="M329.14,379.59h-12.78l12.58-69.2h16.97l12.58,69.2h-12.58l-2.34-14.13h-12.19l-2.24,14.13ZM333.14,354.32h8.68l-2.93-18.2c-.49-3.29-.98-7.74-1.17-10.16h-.59c-.1,2.42-.68,6.87-1.17,10.16l-2.83,18.2Z"/>
          <path class="cls-4" d="M363.3,379.59l.1-7.07v-55.07l-.1-7.07h12.58l-.1,7.07v51.3h17.56v10.84h-30.05Z"/>
          <path class="cls-4" d="M398.64,379.59l.1-7.07v-55.07l-.1-7.07h12.58l-.1,7.07v51.3h17.56v10.84h-30.05Z"/>
          <path class="cls-4" d="M442.17,379.59h-12.78l12.58-69.2h16.97l12.58,69.2h-12.58l-2.34-14.13h-12.19l-2.24,14.13ZM446.17,354.32h8.68l-2.93-18.2c-.49-3.29-.98-7.74-1.17-10.16h-.59c-.1,2.42-.68,6.87-1.17,10.16l-2.83,18.2Z"/>
          <path class="cls-4" d="M493.6,321.22v51.3l.1,7.07h-12.49l.1-7.07v-51.3h-12.29v-10.84h36.97v10.84h-12.39Z"/>
          <path class="cls-4" d="M523.97,310.38l-.1,7.07v55.07l.1,7.07h-12.58l.1-7.07v-55.07l-.1-7.07h12.58Z"/>
          <path class="cls-4" d="M538.82,376.78c-3.9-3.39-6.05-8.81-6.05-22.84v-17.91c0-14.03,2.15-19.45,6.05-22.84,3.02-2.61,7.32-3.97,12.39-3.97s9.46,1.35,12.49,3.97c3.9,3.39,6.05,8.81,6.05,22.84v17.91c0,14.03-2.15,19.45-6.05,22.84-3.02,2.61-7.32,3.97-12.49,3.97s-9.36-1.36-12.39-3.97ZM557.15,356.65v-23.33c0-7.16,0-12.58-5.95-12.58s-5.85,5.42-5.85,12.58v23.33c0,7.16,0,12.58,5.85,12.58s5.95-5.42,5.95-12.58Z"/>
          <path class="cls-4" d="M591.42,310.38l12.58,30.87c1.46,3.58,2.24,6.1,2.93,8.52h.39c-.19-2.52-.49-6.29-.49-9v-23.33l-.1-7.07h12.19l-.1,7.07v55.07l.1,7.07h-11.32l-13.95-34.94c-1.56-3.58-2.34-6.1-3.12-8.52h-.39c.19,2.52.49,6.29.49,9v27.39l.1,7.07h-12.19l.1-7.07v-55.07l-.1-7.07h12.88Z"/>
          <path class="cls-4" d="M636.8,360.42c1.17,6.39,4.1,8.81,8.29,8.81s6.44-2.42,6.44-6c0-3.87-2.54-7.55-8.1-11.61l-6.44-4.65c-7.71-5.61-11.02-12.2-11.02-19.45,0-10.74,7.41-18.29,18.92-18.29,10.63,0,16.78,6.39,18.34,17.23l-12.19,1.65c-.68-4.65-2.63-7.36-6.54-7.36s-5.85,2.61-5.85,6.19c0,4.36,3.12,7.45,8.19,11.13l6.34,4.55c7.32,5.32,11.02,12.1,11.02,19.94,0,11.13-7.51,18.2-19.22,18.2s-18.63-6.97-20.29-18.68l12.1-1.64Z"/>
          <path class="cls-4" d="M668.82,368.36h12.78v11.13l-6.24,12.2h-6.24l4.78-12.1h-5.07v-11.23Z"/>
          <path class="cls-4" d="M716.47,351.13v21.39l.1,7.07h-12.58l.1-7.07v-55.07l-.1-7.07h17.56c15.61,0,19.41,9.19,19.41,20.42v.19c0,7.26-2.05,13.55-7.8,17.13l9.36,31.46h-13.27l-8-28.46h-4.78ZM716.47,340.58h3.32c7.02,0,8.39-4.36,8.39-9.68v-.1c0-5.32-1.46-9.58-8.19-9.58h-3.51v19.36Z"/>
          <path class="cls-4" d="M761.17,349v19.74h19.51v10.84h-32l.1-7.07v-55.07l-.1-7.07h31.61v10.84h-19.12v16.74h15.02v11.03h-15.02Z"/>
          <path class="cls-4" d="M796.12,360.42c1.17,6.39,4.1,8.81,8.29,8.81s6.44-2.42,6.44-6c0-3.87-2.54-7.55-8.1-11.61l-6.44-4.65c-7.71-5.61-11.02-12.2-11.02-19.45,0-10.74,7.41-18.29,18.92-18.29,10.63,0,16.78,6.39,18.34,17.23l-12.19,1.65c-.68-4.65-2.63-7.36-6.54-7.36s-5.85,2.61-5.85,6.19c0,4.36,3.12,7.45,8.19,11.13l6.34,4.55c7.32,5.32,11.02,12.1,11.02,19.94,0,11.13-7.51,18.2-19.22,18.2s-18.63-6.97-20.29-18.68l12.1-1.64Z"/>
          <path class="cls-4" d="M842.09,349v19.74h19.51v10.84h-32l.1-7.07v-55.07l-.1-7.07h31.61v10.84h-19.12v16.74h15.02v11.03h-15.02Z"/>
          <path class="cls-4" d="M876.74,379.59h-12.78l12.58-69.2h16.97l12.58,69.2h-12.58l-2.34-14.13h-12.19l-2.24,14.13ZM880.74,354.32h8.68l-2.93-18.2c-.49-3.29-.98-7.74-1.17-10.16h-.59c-.1,2.42-.68,6.87-1.17,10.16l-2.83,18.2Z"/>
          <path class="cls-4" d="M923.39,351.13v21.39l.1,7.07h-12.58l.1-7.07v-55.07l-.1-7.07h17.56c15.61,0,19.41,9.19,19.41,20.42v.19c0,7.26-2.05,13.55-7.8,17.13l9.36,31.46h-13.27l-8-28.46h-4.78ZM923.39,340.58h3.32c7.02,0,8.39-4.36,8.39-9.68v-.1c0-5.32-1.46-9.58-8.19-9.58h-3.51v19.36Z"/>
          <path class="cls-4" d="M961.07,376.78c-3.9-3.39-6.05-8.81-6.05-22.84v-17.91c0-14.03,2.15-19.45,6.05-22.84,3.02-2.61,7.32-3.97,12.49-3.97,5.46,0,9.66,1.55,12.39,3.97,3.9,3.39,6.05,8.9,6.05,21.29v.19h-12.58v-.19c0-8.23,0-13.74-5.85-13.74s-5.95,5.52-5.95,12.58v23.33c0,7.36,0,12.58,5.95,12.58s6.05-5.23,6.05-15.39v-.1h12.58v.1c0,14.13-2.24,19.55-6.15,22.94-3.02,2.61-7.32,3.97-12.49,3.97s-9.46-1.36-12.49-3.97Z"/>
          <path class="cls-4" d="M1036.3,310.38l-.1,7.07v55.07l.1,7.07h-12.49l.1-7.07v-23.52h-12.1v23.52l.1,7.07h-12.58l.1-7.07v-55.07l-.1-7.07h12.58l-.1,7.07v20.52h12.1v-20.52l-.1-7.07h12.49Z"/>
          <path class="cls-4" d="M1044.23,368.36h12.78v11.13l-6.24,12.2h-6.24l4.78-12.1h-5.07v-11.23Z"/>
          <path class="cls-4" d="M1085.78,379.59h-12.78l12.58-69.2h16.97l12.58,69.2h-12.58l-2.34-14.13h-12.19l-2.24,14.13ZM1089.78,354.32h8.68l-2.93-18.2c-.49-3.29-.98-7.74-1.17-10.16h-.59c-.1,2.42-.68,6.87-1.17,10.16l-2.83,18.2Z"/>
          <path class="cls-4" d="M1132.83,310.38l12.58,30.87c1.46,3.58,2.24,6.1,2.93,8.52h.39c-.19-2.52-.49-6.29-.49-9v-23.33l-.1-7.07h12.19l-.1,7.07v55.07l.1,7.07h-11.32l-13.95-34.94c-1.56-3.58-2.34-6.1-3.12-8.52h-.39c.19,2.52.49,6.29.49,9v27.39l.1,7.07h-12.19l.1-7.07v-55.07l-.1-7.07h12.88Z"/>
          <path class="cls-4" d="M1201.62,314.35c4.29,3.58,6.05,8.71,6.05,19.65v21.97c0,10.94-1.76,16.07-6.05,19.65-2.93,2.52-6.93,3.97-12,3.97h-18.73l.1-7.07v-55.07l-.1-7.07h18.73c5.07,0,9.07,1.45,12,3.97ZM1183.38,321.22v47.52h4.29c5.76,0,7.41-3.77,7.41-9.39v-28.75c0-5.23-1.56-9.39-7.41-9.39h-4.29Z"/>
          <path class="cls-4" d="M1230.93,379.59l.1-7.07v-55.07l-.1-7.07h16.88c12.88,0,19.32,6.87,19.32,17.52v.1c0,7.45-2.93,12.1-8.19,15.1v.39c5.95,2.71,9.76,7.74,9.76,15.49v.19c0,13.36-7.32,20.42-20.58,20.42h-17.17ZM1243.42,338.06h3.22c5.56,0,8-3.77,8-9v-.19c0-4.94-2.54-7.65-7.8-7.65h-3.41v16.84ZM1247.03,368.75c6.63,0,8.68-3.58,8.68-10.16v-.19c0-6.1-2.63-9.49-8.88-9.49h-3.41v19.84h3.61Z"/>
          <path class="cls-4" d="M1287.73,349v19.74h19.51v10.84h-32l.1-7.07v-55.07l-.1-7.07h31.61v10.84h-19.12v16.74h15.02v11.03h-15.02Z"/>
          <path class="cls-4" d="M1329.6,335.35h.39l8-24.97h12.29l-14.34,40.84v21.29l.1,7.07h-12.68l.1-7.07v-21.29l-14.44-40.84h12.58l8,24.97Z"/>
          <path class="cls-4" d="M1358.01,376.78c-3.9-3.39-6.05-8.81-6.05-22.84v-17.91c0-14.03,2.15-19.45,6.05-22.84,3.02-2.61,7.32-3.97,12.39-3.97s9.46,1.35,12.49,3.97c3.9,3.39,6.05,8.81,6.05,22.84v17.91c0,14.03-2.15,19.45-6.05,22.84-3.02,2.61-7.32,3.97-12.49,3.97s-9.36-1.36-12.39-3.97ZM1376.35,356.65v-23.33c0-7.16,0-12.58-5.95-12.58s-5.85,5.42-5.85,12.58v23.33c0,7.16,0,12.58,5.85,12.58s5.95-5.42,5.95-12.58Z"/>
          <path class="cls-4" d="M1410.62,310.38l12.58,30.87c1.46,3.58,2.24,6.1,2.93,8.52h.39c-.19-2.52-.49-6.29-.49-9v-23.33l-.1-7.07h12.19l-.1,7.07v55.07l.1,7.07h-11.32l-13.95-34.94c-1.56-3.58-2.34-6.1-3.12-8.52h-.39c.19,2.52.49,6.29.49,9v27.39l.1,7.07h-12.19l.1-7.07v-55.07l-.1-7.07h12.88Z"/>
          <path class="cls-4" d="M1479.41,314.35c4.29,3.58,6.05,8.71,6.05,19.65v21.97c0,10.94-1.76,16.07-6.05,19.65-2.93,2.52-6.93,3.97-12,3.97h-18.73l.1-7.07v-55.07l-.1-7.07h18.73c5.07,0,9.07,1.45,12,3.97ZM1461.17,321.22v47.52h4.29c5.76,0,7.41-3.77,7.41-9.39v-28.75c0-5.23-1.56-9.39-7.41-9.39h-4.29Z"/>
          <path class="cls-4" d="M1493.09,368.36h11.61v11.23h-11.61v-11.23Z"/>
          <path class="cls-4" d="M179.34,536.95h-12.62l12.43-69.2h16.77l12.43,69.2h-12.43l-2.31-14.13h-12.05l-2.22,14.13ZM183.29,511.68h8.58l-2.89-18.2c-.48-3.29-.96-7.74-1.16-10.16h-.58c-.1,2.42-.67,6.87-1.16,10.16l-2.79,18.2Z"/>
          <path class="cls-4" d="M212.68,536.95l.1-7.07v-55.07l-.1-7.07h16.67c12.72,0,19.08,6.87,19.08,17.52v.1c0,7.45-2.89,12.1-8.09,15.1v.39c5.88,2.71,9.64,7.74,9.64,15.49v.19c0,13.36-7.23,20.42-20.33,20.42h-16.96ZM225.01,495.42h3.18c5.49,0,7.9-3.77,7.9-9v-.19c0-4.94-2.51-7.65-7.71-7.65h-3.37v16.84ZM228.58,526.11c6.55,0,8.58-3.58,8.58-10.16v-.19c0-6.1-2.6-9.49-8.77-9.49h-3.37v19.84h3.57Z"/>
          <path class="cls-4" d="M261.43,534.14c-3.85-3.39-5.97-8.81-5.97-22.84v-17.91c0-14.03,2.12-19.45,5.97-22.84,2.99-2.61,7.23-3.97,12.24-3.97s9.35,1.35,12.34,3.97c3.85,3.39,5.97,8.81,5.97,22.84v17.91c0,14.03-2.12,19.45-5.97,22.84-2.99,2.61-7.23,3.97-12.34,3.97s-9.25-1.36-12.24-3.97ZM279.55,514.01v-23.33c0-7.16,0-12.58-5.88-12.58s-5.78,5.42-5.78,12.58v23.33c0,7.16,0,12.58,5.78,12.58s5.88-5.42,5.88-12.58Z"/>
          <path class="cls-4" d="M324.45,467.74h12.34l-13.97,69.2h-13.59l-13.97-69.2h12.62l6.75,36.39c.48,3.19,1.06,7.74,1.25,10.94h.48c.19-3.19.77-7.74,1.25-10.94l6.84-36.39Z"/>
          <path class="cls-4" d="M352.87,506.36v19.74h19.27v10.84h-31.61l.1-7.07v-55.07l-.1-7.07h31.22v10.84h-18.89v16.74h14.84v11.03h-14.84Z"/>
          <path class="cls-4" d="M397.01,536.95h-12.62l12.43-69.2h16.77l12.43,69.2h-12.43l-2.31-14.13h-12.05l-2.22,14.13ZM400.96,511.68h8.58l-2.89-18.2c-.48-3.29-.96-7.74-1.16-10.16h-.58c-.1,2.42-.67,6.87-1.16,10.16l-2.79,18.2Z"/>
          <path class="cls-4" d="M430.35,536.95l.1-7.07v-55.07l-.1-7.07h12.43l-.1,7.07v51.3h17.35v10.84h-29.68Z"/>
          <path class="cls-4" d="M464.84,536.95l.1-7.07v-55.07l-.1-7.07h12.43l-.1,7.07v51.3h17.35v10.84h-29.68Z"/>
          <path class="cls-4" d="M497.89,525.72h12.62v11.13l-6.17,12.2h-6.17l4.72-12.1h-5.01v-11.23Z"/>
          <path class="cls-4" d="M526.08,456.6h15.72l6.08,44.94c.51,3.69.89,8.15,1.01,11.71h.51c.25-3.56.63-8.02,1.27-11.71l7.1-44.94h13.94l7.23,44.94c.63,3.69.89,8.15,1.14,11.71h.51c.13-3.56.51-8.02,1.01-11.71l6.21-44.94h15.46l-14.32,91.02h-15.59l-7.35-41.76c-.63-3.69-.89-8.15-1.14-11.71h-.51c-.13,3.56-.38,8.02-1.01,11.71l-7.48,41.76h-15.59l-14.2-91.02Z"/>
          <path class="cls-4" d="M625.82,507.4v25.97h25.35v14.26h-41.58l.13-9.29v-72.44l-.13-9.29h41.07v14.26h-24.84v22.02h19.52v14.51h-19.52Z"/>
          <path class="cls-4" d="M675.12,547.62l.13-9.29v-72.44l-.13-9.29h21.93c16.73,0,25.1,9.04,25.1,23.04v.13c0,9.8-3.8,15.91-10.65,19.86v.51c7.73,3.56,12.68,10.18,12.68,20.37v.25c0,17.57-9.51,26.86-26.75,26.86h-22.31ZM691.35,493.01h4.18c7.22,0,10.39-4.96,10.39-11.84v-.25c0-6.49-3.3-10.06-10.14-10.06h-4.44v22.15ZM696.04,533.37c8.62,0,11.28-4.71,11.28-13.37v-.25c0-8.02-3.42-12.48-11.53-12.48h-4.44v26.1h4.69Z"/>
          <path class="cls-4" d="M748.38,507.4v25.97h25.35v14.26h-41.58l.13-9.29v-72.44l-.13-9.29h41.07v14.26h-24.84v22.02h19.52v14.51h-19.52Z"/>
          <path class="cls-4" d="M782.21,547.62l.13-9.29v-72.44l-.13-9.29h16.35l-.13,9.29v67.47h22.82v14.26h-39.04Z"/>
          <path class="cls-4" d="M843.93,456.6l-.13,9.29v72.44l.13,9.29h-16.35l.13-9.29v-72.44l-.13-9.29h16.35Z"/>
          <path class="cls-4" d="M873.32,507.4v25.97h25.35v14.26h-41.58l.13-9.29v-72.44l-.13-9.29h41.07v14.26h-24.84v22.02h19.52v14.51h-19.52Z"/>
          <path class="cls-4" d="M938.97,456.6h16.22l-18.38,91.02h-17.87l-18.38-91.02h16.6l8.87,47.87c.63,4.2,1.39,10.18,1.65,14.38h.63c.25-4.2,1.01-10.18,1.65-14.38l9-47.87Z"/>
          <path class="cls-4" d="M976.35,507.4v25.97h25.35v14.26h-41.58l.13-9.29v-72.44l-.13-9.29h41.07v14.26h-24.84v22.02h19.52v14.51h-19.52Z"/>
          <path class="cls-4" d="M1042,456.6l-.13,9.29v72.44l.13,9.29h-16.35l.13-9.29v-72.44l-.13-9.29h16.35Z"/>
          <path class="cls-4" d="M1071.91,456.6l16.35,40.61c1.9,4.71,2.92,8.02,3.8,11.2h.51c-.25-3.31-.63-8.27-.63-11.84v-30.68l-.13-9.29h15.84l-.13,9.29v72.44l.13,9.29h-14.7l-18.13-45.96c-2.03-4.71-3.04-8.02-4.06-11.2h-.51c.25,3.31.63,8.27.63,11.84v36.03l.13,9.29h-15.84l.13-9.29v-72.44l-.13-9.29h16.73Z"/>
          <path class="cls-4" d="M1174.7,461.82c5.58,4.71,7.86,11.46,7.86,25.84v28.9c0,14.39-2.28,21.13-7.86,25.84-3.8,3.31-9,5.22-15.59,5.22h-24.34l.13-9.29v-72.44l-.13-9.29h24.34c6.59,0,11.79,1.91,15.59,5.22ZM1151,470.86v62.51h5.58c7.48,0,9.63-4.97,9.63-12.35v-37.81c0-6.87-2.03-12.35-9.63-12.35h-5.58Z"/>
          <path class="cls-4" d="M1209.8,510.2v28.13l.13,9.29h-16.35l.13-9.29v-72.44l-.13-9.29h22.82c20.28,0,25.22,12.09,25.22,26.86v.25c0,9.55-2.66,17.82-10.14,22.53l12.17,41.37h-17.24l-10.39-37.43h-6.21ZM1209.8,496.32h4.31c9.13,0,10.9-5.73,10.9-12.73v-.13c0-7-1.9-12.6-10.65-12.6h-4.56v25.46Z"/>
          <path class="cls-4" d="M1267.33,507.4v25.97h25.35v14.26h-41.58l.13-9.29v-72.44l-.13-9.29h41.07v14.26h-24.84v22.02h19.52v14.51h-19.52Z"/>
          <path class="cls-4" d="M1311.81,547.62h-16.6l16.35-91.02h22.06l16.35,91.02h-16.35l-3.04-18.59h-15.84l-2.92,18.59ZM1317.01,514.4h11.28l-3.8-23.93c-.63-4.33-1.27-10.18-1.52-13.37h-.76c-.13,3.18-.89,9.04-1.52,13.37l-3.68,23.93Z"/>
          <path class="cls-4" d="M1355.78,538.33v-72.44l-.13-9.29h22.18l9.25,45.32c.76,3.44,1.39,8.66,1.65,12.09h.51c.38-3.44.89-8.66,1.65-12.09l9.38-45.32h21.93l-.13,9.29v72.44l.13,9.29h-14.7l.13-9.29v-44.05c0-3.69.38-8.78.51-12.09h-.63c-.38,3.31-1.01,8.27-1.77,11.84l-10.77,53.6h-12.17l-10.77-53.6c-.76-3.56-1.27-8.53-1.77-11.84h-.51c.13,3.31.38,8.4.38,12.09v44.05l.13,9.29h-14.58l.13-9.29Z"/>
          <path class="cls-4" d="M1444.88,522.42c1.52,8.4,5.32,11.58,10.77,11.58s8.37-3.18,8.37-7.89c0-5.09-3.3-9.93-10.52-15.28l-8.37-6.11c-10.01-7.38-14.32-16.04-14.32-25.59,0-14.13,9.63-24.06,24.59-24.06,13.82,0,21.8,8.4,23.83,22.66l-15.84,2.16c-.89-6.11-3.42-9.68-8.49-9.68s-7.61,3.44-7.61,8.15c0,5.73,4.06,9.8,10.65,14.64l8.24,5.98c9.51,7,14.32,15.91,14.32,26.22,0,14.64-9.76,23.93-24.97,23.93s-24.21-9.17-26.36-24.57l15.72-2.16Z"/>
          <path class="cls-4" d="M1486.19,532.86h15.08v14.77h-15.08v-14.77Z"/>
        </g>
      </g>
      <g class="cls-6">
        <g>
          <path class="cls-4" d="M179.57,124.06h-12.84l12.65-69.2h17.06l12.65,69.2h-12.65l-2.35-14.13h-12.25l-2.25,14.13ZM183.59,98.79h8.72l-2.94-18.2c-.49-3.29-.98-7.74-1.18-10.16h-.59c-.1,2.42-.69,6.87-1.18,10.16l-2.84,18.2Z"/>
          <path class="cls-4" d="M226.03,95.6v21.39l.1,7.07h-12.65l.1-7.07v-55.07l-.1-7.07h17.65c15.68,0,19.51,9.19,19.51,20.42v.19c0,7.26-2.06,13.55-7.84,17.13l9.41,31.46h-13.33l-8.04-28.46h-4.8ZM226.03,85.05h3.33c7.06,0,8.43-4.36,8.43-9.68v-.1c0-5.32-1.47-9.58-8.24-9.58h-3.53v19.36Z"/>
          <path class="cls-4" d="M275.82,65.69v51.3l.1,7.07h-12.55l.1-7.07v-51.3h-12.35v-10.84h37.15v10.84h-12.45Z"/>
          <path class="cls-4" d="M288.27,112.83h12.84v11.13l-6.27,12.2h-6.27l4.8-12.1h-5.1v-11.23Z"/>
          <path class="cls-4" d="M432.73,58.82c4.31,3.58,6.08,8.71,6.08,19.65v21.97c0,10.94-1.76,16.07-6.08,19.65-2.94,2.52-6.96,3.97-12.06,3.97h-18.82l.1-7.07v-55.07l-.1-7.07h18.82c5.1,0,9.12,1.45,12.06,3.97ZM414.4,65.69v47.52h4.31c5.78,0,7.45-3.77,7.45-9.39v-28.75c0-5.23-1.57-9.39-7.45-9.39h-4.31Z"/>
          <path class="cls-4" d="M459.88,93.47v19.74h19.61v10.84h-32.15l.1-7.07v-55.07l-.1-7.07h31.76v10.84h-19.21v16.74h15.1v11.03h-15.1Z"/>
          <path class="cls-4" d="M494.57,104.89c1.18,6.39,4.12,8.81,8.33,8.81s6.47-2.42,6.47-6c0-3.87-2.55-7.55-8.14-11.61l-6.47-4.65c-7.74-5.61-11.08-12.2-11.08-19.45,0-10.74,7.45-18.29,19.02-18.29,10.69,0,16.86,6.39,18.43,17.23l-12.25,1.65c-.69-4.65-2.65-7.36-6.57-7.36s-5.88,2.61-5.88,6.19c0,4.36,3.14,7.45,8.23,11.13l6.37,4.55c7.35,5.32,11.08,12.1,11.08,19.94,0,11.13-7.55,18.2-19.31,18.2s-18.72-6.97-20.39-18.68l12.16-1.64Z"/>
          <path class="cls-4" d="M540.44,54.85l-.1,7.07v55.07l.1,7.07h-12.65l.1-7.07v-55.07l-.1-7.07h12.65Z"/>
          <path class="cls-4" d="M567.88,87.66h18.82v36.39h-5.88l-2.65-5.42h-.2c-2.75,4.16-6.18,6.39-11.96,6.39-4.12,0-8.04-1.16-11.08-3.77-4.22-3.58-6.08-9.68-6.08-22.84v-17.91c0-14.03,2.16-19.45,6.08-22.84,3.14-2.71,7.55-3.97,12.45-3.97,5.2,0,9.51,1.35,12.55,3.97,3.92,3.39,6.08,8.9,6.08,21.29v.19h-12.65v-.19c0-8.23,0-13.74-5.98-13.74s-5.88,5.52-5.88,12.58v23.33c0,7.26,0,12.58,5.88,12.58,7.16,0,7.16-7.84,7.16-14.81v-.1h-6.67v-11.13Z"/>
          <path class="cls-4" d="M608.26,54.85l12.65,30.87c1.47,3.58,2.25,6.1,2.94,8.52h.39c-.2-2.52-.49-6.29-.49-9v-23.33l-.1-7.07h12.25l-.1,7.07v55.07l.1,7.07h-11.37l-14.02-34.94c-1.57-3.58-2.35-6.1-3.14-8.52h-.39c.2,2.52.49,6.29.49,9v27.39l.1,7.07h-12.25l.1-7.07v-55.07l-.1-7.07h12.94Z"/>
          <path class="cls-4" d="M643.45,112.83h12.84v11.13l-6.27,12.2h-6.27l4.8-12.1h-5.1v-11.23Z"/>
          <path class="cls-4" d="M769.58,93.47v23.52l.1,7.07h-12.65l.1-7.07v-55.07l-.1-7.07h31.66v10.84h-19.12v16.74h15.1v11.03h-15.1Z"/>
          <path class="cls-4" d="M805.64,54.85l-.1,7.07v55.07l.1,7.07h-12.65l.1-7.07v-55.07l-.1-7.07h12.65Z"/>
          <path class="cls-4" d="M815.83,124.06l.1-7.07v-55.07l-.1-7.07h12.65l-.1,7.07v51.3h17.65v10.84h-30.19Z"/>
          <path class="cls-4" d="M851.01,116.99v-55.07l-.1-7.07h17.16l7.16,34.46c.59,2.61,1.08,6.58,1.27,9.19h.39c.29-2.61.69-6.58,1.27-9.19l7.25-34.46h16.96l-.1,7.07v55.07l.1,7.07h-11.37l.1-7.07v-33.49c0-2.81.29-6.68.39-9.19h-.49c-.29,2.52-.78,6.29-1.37,9l-8.33,40.75h-9.41l-8.33-40.75c-.59-2.71-.98-6.48-1.37-9h-.39c.1,2.52.29,6.39.29,9.19v33.49l.1,7.07h-11.27l.1-7.07Z"/>
          <path class="cls-4" d="M909.92,112.83h12.84v11.13l-6.27,12.2h-6.27l4.8-12.1h-5.1v-11.23Z"/>
          <path class="cls-4" d="M1023.6,116.99v-55.07l-.1-7.07h17.65c15.68,0,19.51,9.19,19.51,20.62v.19c0,11.42-3.82,20.62-19.51,20.62h-5.1v20.71l.1,7.07h-12.65l.1-7.07ZM1039.58,85.44c6.76,0,8.24-4.26,8.24-9.78v-.19c0-5.52-1.47-9.78-8.24-9.78h-3.53v19.74h3.53Z"/>
          <path class="cls-4" d="M1102.51,54.85l-.1,7.07v55.07l.1,7.07h-12.55l.1-7.07v-23.52h-12.16v23.52l.1,7.07h-12.65l.1-7.07v-55.07l-.1-7.07h12.65l-.1,7.07v20.52h12.16v-20.52l-.1-7.07h12.55Z"/>
          <path class="cls-4" d="M1117.01,121.25c-3.92-3.39-6.08-8.81-6.08-22.84v-17.91c0-14.03,2.16-19.45,6.08-22.84,3.04-2.61,7.35-3.97,12.45-3.97s9.51,1.35,12.55,3.97c3.92,3.39,6.08,8.81,6.08,22.84v17.91c0,14.03-2.16,19.45-6.08,22.84-3.04,2.61-7.35,3.97-12.55,3.97s-9.41-1.36-12.45-3.97ZM1135.44,101.12v-23.33c0-7.16,0-12.58-5.98-12.58s-5.88,5.42-5.88,12.58v23.33c0,7.16,0,12.58,5.88,12.58s5.98-5.42,5.98-12.58Z"/>
          <path class="cls-4" d="M1175.62,65.69v51.3l.1,7.07h-12.55l.1-7.07v-51.3h-12.35v-10.84h37.15v10.84h-12.45Z"/>
          <path class="cls-4" d="M1196.99,121.25c-3.92-3.39-6.08-8.81-6.08-22.84v-17.91c0-14.03,2.16-19.45,6.08-22.84,3.04-2.61,7.35-3.97,12.45-3.97s9.51,1.35,12.55,3.97c3.92,3.39,6.08,8.81,6.08,22.84v17.91c0,14.03-2.16,19.45-6.08,22.84-3.04,2.61-7.35,3.97-12.55,3.97s-9.41-1.36-12.45-3.97ZM1215.42,101.12v-23.33c0-7.16,0-12.58-5.98-12.58s-5.88,5.42-5.88,12.58v23.33c0,7.16,0,12.58,5.88,12.58s5.98-5.42,5.98-12.58Z"/>
          <path class="cls-4" d="M1254.92,87.66h18.82v36.39h-5.88l-2.65-5.42h-.2c-2.75,4.16-6.18,6.39-11.96,6.39-4.12,0-8.04-1.16-11.08-3.77-4.22-3.58-6.08-9.68-6.08-22.84v-17.91c0-14.03,2.16-19.45,6.08-22.84,3.14-2.71,7.55-3.97,12.45-3.97,5.2,0,9.51,1.35,12.55,3.97,3.92,3.39,6.08,8.9,6.08,21.29v.19h-12.65v-.19c0-8.23,0-13.74-5.98-13.74s-5.88,5.52-5.88,12.58v23.33c0,7.26,0,12.58,5.88,12.58,7.16,0,7.16-7.84,7.16-14.81v-.1h-6.67v-11.13Z"/>
          <path class="cls-4" d="M1294.91,95.6v21.39l.1,7.07h-12.65l.1-7.07v-55.07l-.1-7.07h17.65c15.68,0,19.51,9.19,19.51,20.42v.19c0,7.26-2.06,13.55-7.84,17.13l9.41,31.46h-13.33l-8.04-28.46h-4.8ZM1294.91,85.05h3.33c7.06,0,8.43-4.36,8.43-9.68v-.1c0-5.32-1.47-9.58-8.24-9.58h-3.53v19.36Z"/>
          <path class="cls-4" d="M1335.09,124.06h-12.84l12.65-69.2h17.06l12.65,69.2h-12.65l-2.35-14.13h-12.25l-2.25,14.13ZM1339.11,98.79h8.72l-2.94-18.2c-.49-3.29-.98-7.74-1.18-10.16h-.59c-.1,2.42-.69,6.87-1.18,10.16l-2.84,18.2Z"/>
          <path class="cls-4" d="M1369.1,116.99v-55.07l-.1-7.07h17.65c15.68,0,19.51,9.19,19.51,20.62v.19c0,11.42-3.82,20.62-19.51,20.62h-5.1v20.71l.1,7.07h-12.65l.1-7.07ZM1385.08,85.44c6.76,0,8.24-4.26,8.24-9.78v-.19c0-5.52-1.47-9.78-8.24-9.78h-3.53v19.74h3.53Z"/>
          <path class="cls-4" d="M1448.01,54.85l-.1,7.07v55.07l.1,7.07h-12.55l.1-7.07v-23.52h-12.16v23.52l.1,7.07h-12.65l.1-7.07v-55.07l-.1-7.07h12.65l-.1,7.07v20.52h12.16v-20.52l-.1-7.07h12.55Z"/>
          <path class="cls-4" d="M1472.51,79.82h.39l8.04-24.97h12.35l-14.41,40.84v21.29l.1,7.07h-12.74l.1-7.07v-21.29l-14.51-40.84h12.65l8.04,24.97Z"/>
          <path class="cls-4" d="M1492.01,112.83h12.84v11.13l-6.27,12.2h-6.27l4.8-12.1h-5.1v-11.23Z"/>
          <path class="cls-4" d="M195.98,182.62h12.56l-14.23,69.2h-13.84l-14.23-69.2h12.86l6.87,36.39c.49,3.19,1.08,7.74,1.28,10.94h.49c.2-3.19.78-7.74,1.28-10.94l6.97-36.39Z"/>
          <path class="cls-4" d="M225.19,182.62l-.1,7.07v55.07l.1,7.07h-12.66l.1-7.07v-55.07l-.1-7.07h12.66Z"/>
          <path class="cls-4" d="M242.93,232.66c1.18,6.39,4.12,8.81,8.34,8.81s6.48-2.42,6.48-6c0-3.87-2.55-7.55-8.15-11.61l-6.48-4.65c-7.75-5.61-11.09-12.2-11.09-19.45,0-10.74,7.46-18.29,19.04-18.29,10.7,0,16.88,6.39,18.45,17.23l-12.27,1.65c-.69-4.65-2.65-7.36-6.58-7.36s-5.89,2.61-5.89,6.19c0,4.36,3.14,7.45,8.24,11.13l6.38,4.55c7.36,5.32,11.09,12.1,11.09,19.94,0,11.13-7.56,18.2-19.33,18.2s-18.75-6.97-20.41-18.68l12.17-1.64Z"/>
          <path class="cls-4" d="M312.87,182.62l-.1,7.07v44.72c0,11.9-7.07,18.58-18.45,18.58s-18.35-6.68-18.35-18.58v-44.72l-.1-7.07h12.66l-.1,7.07v43.36c0,5.42,1.47,8.42,5.89,8.42s5.99-3,5.99-8.42v-43.36l-.1-7.07h12.66Z"/>
          <path class="cls-4" d="M329.82,251.82h-12.86l12.66-69.2h17.08l12.66,69.2h-12.66l-2.36-14.13h-12.27l-2.26,14.13ZM333.84,226.56h8.73l-2.94-18.2c-.49-3.29-.98-7.74-1.18-10.16h-.59c-.1,2.42-.69,6.87-1.18,10.16l-2.85,18.2Z"/>
          <path class="cls-4" d="M363.94,251.82l.1-7.07v-55.07l-.1-7.07h12.66l-.1,7.07v51.3h17.67v10.84h-30.23Z"/>
          <path class="cls-4" d="M491.84,249.01c-3.93-3.39-6.08-8.81-6.08-22.84v-17.91c0-14.03,2.16-19.45,6.08-22.84,3.04-2.61,7.36-3.97,12.56-3.97,5.5,0,9.72,1.55,12.46,3.97,3.93,3.39,6.09,8.9,6.09,21.29v.19h-12.66v-.19c0-8.23,0-13.74-5.89-13.74s-5.99,5.52-5.99,12.58v23.33c0,7.36,0,12.58,5.99,12.58s6.09-5.23,6.09-15.39v-.1h12.66v.1c0,14.13-2.26,19.55-6.18,22.94-3.04,2.61-7.36,3.97-12.56,3.97s-9.52-1.36-12.56-3.97Z"/>
          <path class="cls-4" d="M535.58,249.01c-3.93-3.39-6.08-8.81-6.08-22.84v-17.91c0-14.03,2.16-19.45,6.08-22.84,3.04-2.61,7.36-3.97,12.46-3.97s9.52,1.35,12.56,3.97c3.93,3.39,6.09,8.81,6.09,22.84v17.91c0,14.03-2.16,19.45-6.09,22.84-3.04,2.61-7.36,3.97-12.56,3.97s-9.42-1.36-12.46-3.97ZM554.03,228.88v-23.33c0-7.16,0-12.58-5.99-12.58s-5.89,5.42-5.89,12.58v23.33c0,7.16,0,12.58,5.89,12.58s5.99-5.42,5.99-12.58Z"/>
          <path class="cls-4" d="M575.39,244.76v-55.07l-.1-7.07h17.17l7.16,34.46c.59,2.61,1.08,6.58,1.28,9.19h.39c.29-2.61.69-6.58,1.28-9.19l7.26-34.46h16.98l-.1,7.07v55.07l.1,7.07h-11.38l.1-7.07v-33.49c0-2.81.29-6.68.39-9.19h-.49c-.29,2.52-.79,6.29-1.37,9l-8.34,40.75h-9.42l-8.34-40.75c-.59-2.71-.98-6.48-1.37-9h-.39c.1,2.52.29,6.39.29,9.19v33.49l.1,7.07h-11.29l.1-7.07Z"/>
          <path class="cls-4" d="M637.29,244.76v-55.07l-.1-7.07h17.18l7.16,34.46c.59,2.61,1.08,6.58,1.28,9.19h.39c.29-2.61.69-6.58,1.28-9.19l7.26-34.46h16.98l-.1,7.07v55.07l.1,7.07h-11.38l.1-7.07v-33.49c0-2.81.29-6.68.39-9.19h-.49c-.29,2.52-.79,6.29-1.37,9l-8.34,40.75h-9.42l-8.34-40.75c-.59-2.71-.98-6.48-1.37-9h-.39c.1,2.52.29,6.39.29,9.19v33.49l.1,7.07h-11.29l.1-7.07Z"/>
          <path class="cls-4" d="M735.01,182.62l-.1,7.07v44.72c0,11.9-7.07,18.58-18.45,18.58s-18.35-6.68-18.35-18.58v-44.72l-.1-7.07h12.66l-.1,7.07v43.36c0,5.42,1.47,8.42,5.89,8.42s5.99-3,5.99-8.42v-43.36l-.1-7.07h12.66Z"/>
          <path class="cls-4" d="M757.26,182.62l12.66,30.87c1.47,3.58,2.26,6.1,2.94,8.52h.39c-.2-2.52-.49-6.29-.49-9v-23.33l-.1-7.07h12.27l-.1,7.07v55.07l.1,7.07h-11.38l-14.03-34.94c-1.57-3.58-2.36-6.1-3.14-8.52h-.39c.2,2.52.49,6.29.49,9v27.39l.1,7.07h-12.27l.1-7.07v-55.07l-.1-7.07h12.96Z"/>
          <path class="cls-4" d="M807.96,182.62l-.1,7.07v55.07l.1,7.07h-12.66l.1-7.07v-55.07l-.1-7.07h12.66Z"/>
          <path class="cls-4" d="M822.65,249.01c-3.93-3.39-6.08-8.81-6.08-22.84v-17.91c0-14.03,2.16-19.45,6.08-22.84,3.04-2.61,7.36-3.97,12.56-3.97,5.5,0,9.72,1.55,12.46,3.97,3.93,3.39,6.09,8.9,6.09,21.29v.19h-12.66v-.19c0-8.23,0-13.74-5.89-13.74s-5.99,5.52-5.99,12.58v23.33c0,7.36,0,12.58,5.99,12.58s6.09-5.23,6.09-15.39v-.1h12.66v.1c0,14.13-2.26,19.55-6.18,22.94-3.04,2.61-7.36,3.97-12.56,3.97s-9.52-1.36-12.56-3.97Z"/>
          <path class="cls-4" d="M869.14,251.82h-12.86l12.66-69.2h17.08l12.66,69.2h-12.66l-2.36-14.13h-12.27l-2.26,14.13ZM873.16,226.56h8.73l-2.94-18.2c-.49-3.29-.98-7.74-1.18-10.16h-.59c-.1,2.42-.69,6.87-1.18,10.16l-2.85,18.2Z"/>
          <path class="cls-4" d="M920.63,193.46v51.3l.1,7.07h-12.56l.1-7.07v-51.3h-12.37v-10.84h37.2v10.84h-12.46Z"/>
          <path class="cls-4" d="M950.93,182.62l-.1,7.07v55.07l.1,7.07h-12.66l.1-7.07v-55.07l-.1-7.07h12.66Z"/>
          <path class="cls-4" d="M965.62,249.01c-3.93-3.39-6.08-8.81-6.08-22.84v-17.91c0-14.03,2.16-19.45,6.08-22.84,3.04-2.61,7.36-3.97,12.46-3.97s9.52,1.35,12.56,3.97c3.93,3.39,6.09,8.81,6.09,22.84v17.91c0,14.03-2.16,19.45-6.09,22.84-3.04,2.61-7.36,3.97-12.56,3.97s-9.42-1.36-12.46-3.97ZM984.07,228.88v-23.33c0-7.16,0-12.58-5.99-12.58s-5.89,5.42-5.89,12.58v23.33c0,7.16,0,12.58,5.89,12.58s5.99-5.42,5.99-12.58Z"/>
          <path class="cls-4" d="M1018.29,182.62l12.66,30.87c1.47,3.58,2.26,6.1,2.94,8.52h.39c-.2-2.52-.49-6.29-.49-9v-23.33l-.1-7.07h12.27l-.1,7.07v55.07l.1,7.07h-11.38l-14.03-34.94c-1.57-3.58-2.36-6.1-3.14-8.52h-.39c.2,2.52.49,6.29.49,9v27.39l.1,7.07h-12.27l.1-7.07v-55.07l-.1-7.07h12.96Z"/>
          <path class="cls-4" d="M1053.69,240.59h12.86v11.13l-6.28,12.2h-6.28l4.81-12.1h-5.1v-11.23Z"/>
          <path class="cls-4" d="M1181.49,215.43h18.84v36.39h-5.89l-2.65-5.42h-.2c-2.75,4.16-6.18,6.39-11.97,6.39-4.12,0-8.05-1.16-11.09-3.77-4.22-3.58-6.08-9.68-6.08-22.84v-17.91c0-14.03,2.16-19.45,6.08-22.84,3.14-2.71,7.56-3.97,12.46-3.97,5.2,0,9.52,1.35,12.56,3.97,3.93,3.39,6.08,8.9,6.08,21.29v.19h-12.66v-.19c0-8.23,0-13.74-5.99-13.74s-5.89,5.52-5.89,12.58v23.33c0,7.26,0,12.58,5.89,12.58,7.16,0,7.16-7.84,7.16-14.81v-.1h-6.67v-11.13Z"/>
          <path class="cls-4" d="M1221.7,223.37v21.39l.1,7.07h-12.66l.1-7.07v-55.07l-.1-7.07h17.67c15.7,0,19.53,9.19,19.53,20.42v.19c0,7.26-2.06,13.55-7.85,17.13l9.42,31.46h-13.35l-8.05-28.46h-4.81ZM1221.7,212.82h3.34c7.07,0,8.44-4.36,8.44-9.68v-.1c0-5.32-1.47-9.58-8.24-9.58h-3.53v19.36Z"/>
          <path class="cls-4" d="M1262.1,251.82h-12.86l12.66-69.2h17.08l12.66,69.2h-12.66l-2.36-14.13h-12.27l-2.26,14.13ZM1266.12,226.56h8.73l-2.94-18.2c-.49-3.29-.98-7.74-1.18-10.16h-.59c-.1,2.42-.69,6.87-1.18,10.16l-2.85,18.2Z"/>
          <path class="cls-4" d="M1296.32,244.76v-55.07l-.1-7.07h17.67c15.7,0,19.53,9.19,19.53,20.62v.19c0,11.42-3.83,20.62-19.53,20.62h-5.1v20.71l.1,7.07h-12.66l.1-7.07ZM1312.32,213.2c6.77,0,8.24-4.26,8.24-9.78v-.19c0-5.52-1.47-9.78-8.24-9.78h-3.53v19.74h3.53Z"/>
          <path class="cls-4" d="M1375.49,182.62l-.1,7.07v55.07l.1,7.07h-12.56l.1-7.07v-23.52h-12.17v23.52l.1,7.07h-12.66l.1-7.07v-55.07l-.1-7.07h12.66l-.1,7.07v20.52h12.17v-20.52l-.1-7.07h12.56Z"/>
          <path class="cls-4" d="M1398.52,182.62l-.1,7.07v55.07l.1,7.07h-12.66l.1-7.07v-55.07l-.1-7.07h12.66Z"/>
          <path class="cls-4" d="M1413.21,249.01c-3.93-3.39-6.08-8.81-6.08-22.84v-17.91c0-14.03,2.16-19.45,6.08-22.84,3.04-2.61,7.36-3.97,12.56-3.97,5.5,0,9.72,1.55,12.46,3.97,3.93,3.39,6.08,8.9,6.08,21.29v.19h-12.66v-.19c0-8.23,0-13.74-5.89-13.74s-5.99,5.52-5.99,12.58v23.33c0,7.36,0,12.58,5.99,12.58s6.09-5.23,6.09-15.39v-.1h12.66v.1c0,14.13-2.26,19.55-6.18,22.94-3.04,2.61-7.36,3.97-12.56,3.97s-9.52-1.36-12.56-3.97Z"/>
          <path class="cls-4" d="M1459.99,232.66c1.18,6.39,4.12,8.81,8.34,8.81s6.48-2.42,6.48-6c0-3.87-2.55-7.55-8.15-11.61l-6.48-4.65c-7.75-5.61-11.09-12.2-11.09-19.45,0-10.74,7.46-18.29,19.04-18.29,10.7,0,16.88,6.39,18.45,17.23l-12.27,1.65c-.69-4.65-2.65-7.36-6.58-7.36s-5.89,2.61-5.89,6.19c0,4.36,3.14,7.45,8.24,11.13l6.38,4.55c7.36,5.32,11.09,12.1,11.09,19.94,0,11.13-7.56,18.2-19.33,18.2s-18.75-6.97-20.41-18.68l12.17-1.64Z"/>
          <path class="cls-4" d="M1491.95,240.59h12.86v11.13l-6.28,12.2h-6.28l4.81-12.1h-5.1v-11.23Z"/>
          <path class="cls-4" d="M183.9,310.38l-.1,7.07v55.07l.1,7.07h-12.58l.1-7.07v-55.07l-.1-7.07h12.58Z"/>
          <path class="cls-4" d="M207.33,310.38l12.58,30.87c1.46,3.58,2.24,6.1,2.93,8.52h.39c-.19-2.52-.49-6.29-.49-9v-23.33l-.1-7.07h12.19l-.1,7.07v55.07l.1,7.07h-11.32l-13.95-34.94c-1.56-3.58-2.34-6.1-3.12-8.52h-.39c.19,2.52.49,6.29.49,9v27.39l.1,7.07h-12.19l.1-7.07v-55.07l-.1-7.07h12.88Z"/>
          <path class="cls-4" d="M252.72,360.42c1.17,6.39,4.1,8.81,8.29,8.81s6.44-2.42,6.44-6c0-3.87-2.54-7.55-8.1-11.61l-6.44-4.65c-7.71-5.61-11.02-12.2-11.02-19.45,0-10.74,7.41-18.29,18.92-18.29,10.63,0,16.78,6.39,18.34,17.23l-12.19,1.65c-.68-4.65-2.63-7.36-6.54-7.36s-5.85,2.61-5.85,6.19c0,4.36,3.12,7.45,8.19,11.13l6.34,4.55c7.32,5.32,11.02,12.1,11.02,19.94,0,11.13-7.51,18.2-19.22,18.2s-18.63-6.97-20.29-18.68l12.1-1.64Z"/>
          <path class="cls-4" d="M306.49,321.22v51.3l.1,7.07h-12.49l.1-7.07v-51.3h-12.29v-10.84h36.97v10.84h-12.39Z"/>
          <path class="cls-4" d="M329.15,379.59h-12.78l12.58-69.2h16.97l12.58,69.2h-12.58l-2.34-14.13h-12.19l-2.24,14.13ZM333.15,354.32h8.68l-2.93-18.2c-.49-3.29-.98-7.74-1.17-10.16h-.59c-.1,2.42-.68,6.87-1.17,10.16l-2.83,18.2Z"/>
          <path class="cls-4" d="M363.31,379.59l.1-7.07v-55.07l-.1-7.07h12.58l-.1,7.07v51.3h17.56v10.84h-30.05Z"/>
          <path class="cls-4" d="M398.65,379.59l.1-7.07v-55.07l-.1-7.07h12.58l-.1,7.07v51.3h17.56v10.84h-30.05Z"/>
          <path class="cls-4" d="M442.18,379.59h-12.78l12.58-69.2h16.97l12.58,69.2h-12.58l-2.34-14.13h-12.19l-2.24,14.13ZM446.18,354.32h8.68l-2.93-18.2c-.49-3.29-.98-7.74-1.17-10.16h-.59c-.1,2.42-.68,6.87-1.17,10.16l-2.83,18.2Z"/>
          <path class="cls-4" d="M493.61,321.22v51.3l.1,7.07h-12.49l.1-7.07v-51.3h-12.29v-10.84h36.97v10.84h-12.39Z"/>
          <path class="cls-4" d="M523.97,310.38l-.1,7.07v55.07l.1,7.07h-12.58l.1-7.07v-55.07l-.1-7.07h12.58Z"/>
          <path class="cls-4" d="M538.82,376.78c-3.9-3.39-6.05-8.81-6.05-22.84v-17.91c0-14.03,2.15-19.45,6.05-22.84,3.02-2.61,7.32-3.97,12.39-3.97s9.46,1.35,12.49,3.97c3.9,3.39,6.05,8.81,6.05,22.84v17.91c0,14.03-2.15,19.45-6.05,22.84-3.02,2.61-7.32,3.97-12.49,3.97s-9.36-1.36-12.39-3.97ZM557.16,356.65v-23.33c0-7.16,0-12.58-5.95-12.58s-5.85,5.42-5.85,12.58v23.33c0,7.16,0,12.58,5.85,12.58s5.95-5.42,5.95-12.58Z"/>
          <path class="cls-4" d="M591.43,310.38l12.58,30.87c1.46,3.58,2.24,6.1,2.93,8.52h.39c-.19-2.52-.49-6.29-.49-9v-23.33l-.1-7.07h12.19l-.1,7.07v55.07l.1,7.07h-11.32l-13.95-34.94c-1.56-3.58-2.34-6.1-3.12-8.52h-.39c.19,2.52.49,6.29.49,9v27.39l.1,7.07h-12.19l.1-7.07v-55.07l-.1-7.07h12.88Z"/>
          <path class="cls-4" d="M636.81,360.42c1.17,6.39,4.1,8.81,8.29,8.81s6.44-2.42,6.44-6c0-3.87-2.54-7.55-8.1-11.61l-6.44-4.65c-7.71-5.61-11.02-12.2-11.02-19.45,0-10.74,7.41-18.29,18.92-18.29,10.63,0,16.78,6.39,18.34,17.23l-12.19,1.65c-.68-4.65-2.63-7.36-6.54-7.36s-5.85,2.61-5.85,6.19c0,4.36,3.12,7.45,8.19,11.13l6.34,4.55c7.32,5.32,11.02,12.1,11.02,19.94,0,11.13-7.51,18.2-19.22,18.2s-18.63-6.97-20.29-18.68l12.1-1.64Z"/>
          <path class="cls-4" d="M668.83,368.36h12.78v11.13l-6.24,12.2h-6.24l4.78-12.1h-5.07v-11.23Z"/>
          <path class="cls-4" d="M716.48,351.13v21.39l.1,7.07h-12.58l.1-7.07v-55.07l-.1-7.07h17.56c15.61,0,19.41,9.19,19.41,20.42v.19c0,7.26-2.05,13.55-7.8,17.13l9.36,31.46h-13.27l-8-28.46h-4.78ZM716.48,340.58h3.32c7.02,0,8.39-4.36,8.39-9.68v-.1c0-5.32-1.46-9.58-8.19-9.58h-3.51v19.36Z"/>
          <path class="cls-4" d="M761.18,349v19.74h19.51v10.84h-32l.1-7.07v-55.07l-.1-7.07h31.61v10.84h-19.12v16.74h15.02v11.03h-15.02Z"/>
          <path class="cls-4" d="M796.12,360.42c1.17,6.39,4.1,8.81,8.29,8.81s6.44-2.42,6.44-6c0-3.87-2.54-7.55-8.1-11.61l-6.44-4.65c-7.71-5.61-11.02-12.2-11.02-19.45,0-10.74,7.41-18.29,18.92-18.29,10.63,0,16.78,6.39,18.34,17.23l-12.19,1.65c-.68-4.65-2.63-7.36-6.54-7.36s-5.85,2.61-5.85,6.19c0,4.36,3.12,7.45,8.19,11.13l6.34,4.55c7.32,5.32,11.02,12.1,11.02,19.94,0,11.13-7.51,18.2-19.22,18.2s-18.63-6.97-20.29-18.68l12.1-1.64Z"/>
          <path class="cls-4" d="M842.09,349v19.74h19.51v10.84h-32l.1-7.07v-55.07l-.1-7.07h31.61v10.84h-19.12v16.74h15.02v11.03h-15.02Z"/>
          <path class="cls-4" d="M876.75,379.59h-12.78l12.58-69.2h16.97l12.58,69.2h-12.58l-2.34-14.13h-12.19l-2.24,14.13ZM880.75,354.32h8.68l-2.93-18.2c-.49-3.29-.98-7.74-1.17-10.16h-.59c-.1,2.42-.68,6.87-1.17,10.16l-2.83,18.2Z"/>
          <path class="cls-4" d="M923.4,351.13v21.39l.1,7.07h-12.58l.1-7.07v-55.07l-.1-7.07h17.56c15.61,0,19.41,9.19,19.41,20.42v.19c0,7.26-2.05,13.55-7.8,17.13l9.36,31.46h-13.27l-8-28.46h-4.78ZM923.4,340.58h3.32c7.02,0,8.39-4.36,8.39-9.68v-.1c0-5.32-1.46-9.58-8.19-9.58h-3.51v19.36Z"/>
          <path class="cls-4" d="M961.08,376.78c-3.9-3.39-6.05-8.81-6.05-22.84v-17.91c0-14.03,2.15-19.45,6.05-22.84,3.02-2.61,7.32-3.97,12.49-3.97,5.46,0,9.66,1.55,12.39,3.97,3.9,3.39,6.05,8.9,6.05,21.29v.19h-12.58v-.19c0-8.23,0-13.74-5.85-13.74s-5.95,5.52-5.95,12.58v23.33c0,7.36,0,12.58,5.95,12.58s6.05-5.23,6.05-15.39v-.1h12.58v.1c0,14.13-2.24,19.55-6.15,22.94-3.02,2.61-7.32,3.97-12.49,3.97s-9.46-1.36-12.49-3.97Z"/>
          <path class="cls-4" d="M1036.31,310.38l-.1,7.07v55.07l.1,7.07h-12.49l.1-7.07v-23.52h-12.1v23.52l.1,7.07h-12.58l.1-7.07v-55.07l-.1-7.07h12.58l-.1,7.07v20.52h12.1v-20.52l-.1-7.07h12.49Z"/>
          <path class="cls-4" d="M1044.23,368.36h12.78v11.13l-6.24,12.2h-6.24l4.78-12.1h-5.07v-11.23Z"/>
          <path class="cls-4" d="M1085.79,379.59h-12.78l12.58-69.2h16.97l12.58,69.2h-12.58l-2.34-14.13h-12.19l-2.24,14.13ZM1089.79,354.32h8.68l-2.93-18.2c-.49-3.29-.98-7.74-1.17-10.16h-.59c-.1,2.42-.68,6.87-1.17,10.16l-2.83,18.2Z"/>
          <path class="cls-4" d="M1132.83,310.38l12.58,30.87c1.46,3.58,2.24,6.1,2.93,8.52h.39c-.19-2.52-.49-6.29-.49-9v-23.33l-.1-7.07h12.19l-.1,7.07v55.07l.1,7.07h-11.32l-13.95-34.94c-1.56-3.58-2.34-6.1-3.12-8.52h-.39c.19,2.52.49,6.29.49,9v27.39l.1,7.07h-12.19l.1-7.07v-55.07l-.1-7.07h12.88Z"/>
          <path class="cls-4" d="M1201.63,314.35c4.29,3.58,6.05,8.71,6.05,19.65v21.97c0,10.94-1.76,16.07-6.05,19.65-2.93,2.52-6.93,3.97-12,3.97h-18.73l.1-7.07v-55.07l-.1-7.07h18.73c5.07,0,9.07,1.45,12,3.97ZM1183.39,321.22v47.52h4.29c5.76,0,7.41-3.77,7.41-9.39v-28.75c0-5.23-1.56-9.39-7.41-9.39h-4.29Z"/>
          <path class="cls-4" d="M1230.94,379.59l.1-7.07v-55.07l-.1-7.07h16.88c12.88,0,19.32,6.87,19.32,17.52v.1c0,7.45-2.93,12.1-8.19,15.1v.39c5.95,2.71,9.76,7.74,9.76,15.49v.19c0,13.36-7.32,20.42-20.58,20.42h-17.17ZM1243.42,338.06h3.22c5.56,0,8-3.77,8-9v-.19c0-4.94-2.54-7.65-7.8-7.65h-3.41v16.84ZM1247.03,368.75c6.63,0,8.68-3.58,8.68-10.16v-.19c0-6.1-2.63-9.49-8.88-9.49h-3.41v19.84h3.61Z"/>
          <path class="cls-4" d="M1287.73,349v19.74h19.51v10.84h-32l.1-7.07v-55.07l-.1-7.07h31.61v10.84h-19.12v16.74h15.02v11.03h-15.02Z"/>
          <path class="cls-4" d="M1329.61,335.35h.39l8-24.97h12.29l-14.34,40.84v21.29l.1,7.07h-12.68l.1-7.07v-21.29l-14.44-40.84h12.58l8,24.97Z"/>
          <path class="cls-4" d="M1358.02,376.78c-3.9-3.39-6.05-8.81-6.05-22.84v-17.91c0-14.03,2.15-19.45,6.05-22.84,3.02-2.61,7.32-3.97,12.39-3.97s9.46,1.35,12.49,3.97c3.9,3.39,6.05,8.81,6.05,22.84v17.91c0,14.03-2.15,19.45-6.05,22.84-3.02,2.61-7.32,3.97-12.49,3.97s-9.36-1.36-12.39-3.97ZM1376.36,356.65v-23.33c0-7.16,0-12.58-5.95-12.58s-5.85,5.42-5.85,12.58v23.33c0,7.16,0,12.58,5.85,12.58s5.95-5.42,5.95-12.58Z"/>
          <path class="cls-4" d="M1410.62,310.38l12.58,30.87c1.46,3.58,2.24,6.1,2.93,8.52h.39c-.19-2.52-.49-6.29-.49-9v-23.33l-.1-7.07h12.19l-.1,7.07v55.07l.1,7.07h-11.32l-13.95-34.94c-1.56-3.58-2.34-6.1-3.12-8.52h-.39c.19,2.52.49,6.29.49,9v27.39l.1,7.07h-12.19l.1-7.07v-55.07l-.1-7.07h12.88Z"/>
          <path class="cls-4" d="M1479.42,314.35c4.29,3.58,6.05,8.71,6.05,19.65v21.97c0,10.94-1.76,16.07-6.05,19.65-2.93,2.52-6.93,3.97-12,3.97h-18.73l.1-7.07v-55.07l-.1-7.07h18.73c5.07,0,9.07,1.45,12,3.97ZM1461.17,321.22v47.52h4.29c5.76,0,7.41-3.77,7.41-9.39v-28.75c0-5.23-1.56-9.39-7.41-9.39h-4.29Z"/>
          <path class="cls-4" d="M1493.1,368.36h11.61v11.23h-11.61v-11.23Z"/>
          <path class="cls-4" d="M179.35,536.95h-12.62l12.43-69.2h16.77l12.43,69.2h-12.43l-2.31-14.13h-12.05l-2.22,14.13ZM183.3,511.68h8.58l-2.89-18.2c-.48-3.29-.96-7.74-1.16-10.16h-.58c-.1,2.42-.67,6.87-1.16,10.16l-2.79,18.2Z"/>
          <path class="cls-4" d="M212.68,536.95l.1-7.07v-55.07l-.1-7.07h16.67c12.72,0,19.08,6.87,19.08,17.52v.1c0,7.45-2.89,12.1-8.09,15.1v.39c5.88,2.71,9.64,7.74,9.64,15.49v.19c0,13.36-7.23,20.42-20.33,20.42h-16.96ZM225.02,495.42h3.18c5.49,0,7.9-3.77,7.9-9v-.19c0-4.94-2.51-7.65-7.71-7.65h-3.37v16.84ZM228.58,526.11c6.55,0,8.58-3.58,8.58-10.16v-.19c0-6.1-2.6-9.49-8.77-9.49h-3.37v19.84h3.57Z"/>
          <path class="cls-4" d="M261.44,534.14c-3.85-3.39-5.97-8.81-5.97-22.84v-17.91c0-14.03,2.12-19.45,5.97-22.84,2.99-2.61,7.23-3.97,12.24-3.97s9.35,1.35,12.34,3.97c3.85,3.39,5.97,8.81,5.97,22.84v17.91c0,14.03-2.12,19.45-5.97,22.84-2.99,2.61-7.23,3.97-12.34,3.97s-9.25-1.36-12.24-3.97ZM279.56,514.01v-23.33c0-7.16,0-12.58-5.88-12.58s-5.78,5.42-5.78,12.58v23.33c0,7.16,0,12.58,5.78,12.58s5.88-5.42,5.88-12.58Z"/>
          <path class="cls-4" d="M324.46,467.74h12.34l-13.97,69.2h-13.59l-13.97-69.2h12.62l6.75,36.39c.48,3.19,1.06,7.74,1.25,10.94h.48c.19-3.19.77-7.74,1.25-10.94l6.84-36.39Z"/>
          <path class="cls-4" d="M352.88,506.36v19.74h19.27v10.84h-31.61l.1-7.07v-55.07l-.1-7.07h31.22v10.84h-18.89v16.74h14.84v11.03h-14.84Z"/>
          <path class="cls-4" d="M397.02,536.95h-12.62l12.43-69.2h16.77l12.43,69.2h-12.43l-2.31-14.13h-12.05l-2.22,14.13ZM400.97,511.68h8.58l-2.89-18.2c-.48-3.29-.96-7.74-1.16-10.16h-.58c-.1,2.42-.67,6.87-1.16,10.16l-2.79,18.2Z"/>
          <path class="cls-4" d="M430.36,536.95l.1-7.07v-55.07l-.1-7.07h12.43l-.1,7.07v51.3h17.35v10.84h-29.68Z"/>
          <path class="cls-4" d="M464.85,536.95l.1-7.07v-55.07l-.1-7.07h12.43l-.1,7.07v51.3h17.35v10.84h-29.68Z"/>
          <path class="cls-4" d="M497.9,525.72h12.62v11.13l-6.17,12.2h-6.17l4.72-12.1h-5.01v-11.23Z"/>
          <path class="cls-4" d="M526.08,456.6h15.72l6.08,44.94c.51,3.69.89,8.15,1.01,11.71h.51c.25-3.56.63-8.02,1.27-11.71l7.1-44.94h13.94l7.23,44.94c.63,3.69.89,8.15,1.14,11.71h.51c.13-3.56.51-8.02,1.01-11.71l6.21-44.94h15.46l-14.32,91.02h-15.59l-7.35-41.76c-.63-3.69-.89-8.15-1.14-11.71h-.51c-.13,3.56-.38,8.02-1.01,11.71l-7.48,41.76h-15.59l-14.2-91.02Z"/>
          <path class="cls-4" d="M625.83,507.4v25.97h25.35v14.26h-41.58l.13-9.29v-72.44l-.13-9.29h41.07v14.26h-24.84v22.02h19.52v14.51h-19.52Z"/>
          <path class="cls-4" d="M675.13,547.62l.13-9.29v-72.44l-.13-9.29h21.93c16.73,0,25.1,9.04,25.1,23.04v.13c0,9.8-3.8,15.91-10.65,19.86v.51c7.73,3.56,12.68,10.18,12.68,20.37v.25c0,17.57-9.51,26.86-26.75,26.86h-22.31ZM691.36,493.01h4.18c7.22,0,10.39-4.96,10.39-11.84v-.25c0-6.49-3.3-10.06-10.14-10.06h-4.44v22.15ZM696.05,533.37c8.62,0,11.28-4.71,11.28-13.37v-.25c0-8.02-3.42-12.48-11.53-12.48h-4.44v26.1h4.69Z"/>
          <path class="cls-4" d="M748.38,507.4v25.97h25.35v14.26h-41.58l.13-9.29v-72.44l-.13-9.29h41.07v14.26h-24.84v22.02h19.52v14.51h-19.52Z"/>
          <path class="cls-4" d="M782.22,547.62l.13-9.29v-72.44l-.13-9.29h16.35l-.13,9.29v67.47h22.82v14.26h-39.04Z"/>
          <path class="cls-4" d="M843.93,456.6l-.13,9.29v72.44l.13,9.29h-16.35l.13-9.29v-72.44l-.13-9.29h16.35Z"/>
          <path class="cls-4" d="M873.33,507.4v25.97h25.35v14.26h-41.58l.13-9.29v-72.44l-.13-9.29h41.07v14.26h-24.84v22.02h19.52v14.51h-19.52Z"/>
          <path class="cls-4" d="M938.97,456.6h16.22l-18.38,91.02h-17.87l-18.38-91.02h16.6l8.87,47.87c.63,4.2,1.39,10.18,1.65,14.38h.63c.25-4.2,1.01-10.18,1.65-14.38l9-47.87Z"/>
          <path class="cls-4" d="M976.35,507.4v25.97h25.35v14.26h-41.58l.13-9.29v-72.44l-.13-9.29h41.07v14.26h-24.84v22.02h19.52v14.51h-19.52Z"/>
          <path class="cls-4" d="M1042.01,456.6l-.13,9.29v72.44l.13,9.29h-16.35l.13-9.29v-72.44l-.13-9.29h16.35Z"/>
          <path class="cls-4" d="M1071.91,456.6l16.35,40.61c1.9,4.71,2.92,8.02,3.8,11.2h.51c-.25-3.31-.63-8.27-.63-11.84v-30.68l-.13-9.29h15.84l-.13,9.29v72.44l.13,9.29h-14.7l-18.13-45.96c-2.03-4.71-3.04-8.02-4.06-11.2h-.51c.25,3.31.63,8.27.63,11.84v36.03l.13,9.29h-15.84l.13-9.29v-72.44l-.13-9.29h16.73Z"/>
          <path class="cls-4" d="M1174.71,461.82c5.58,4.71,7.86,11.46,7.86,25.84v28.9c0,14.39-2.28,21.13-7.86,25.84-3.8,3.31-9,5.22-15.59,5.22h-24.34l.13-9.29v-72.44l-.13-9.29h24.34c6.59,0,11.79,1.91,15.59,5.22ZM1151,470.86v62.51h5.58c7.48,0,9.63-4.97,9.63-12.35v-37.81c0-6.87-2.03-12.35-9.63-12.35h-5.58Z"/>
          <path class="cls-4" d="M1209.81,510.2v28.13l.13,9.29h-16.35l.13-9.29v-72.44l-.13-9.29h22.82c20.28,0,25.22,12.09,25.22,26.86v.25c0,9.55-2.66,17.82-10.14,22.53l12.17,41.37h-17.24l-10.39-37.43h-6.21ZM1209.81,496.32h4.31c9.13,0,10.9-5.73,10.9-12.73v-.13c0-7-1.9-12.6-10.65-12.6h-4.56v25.46Z"/>
          <path class="cls-4" d="M1267.34,507.4v25.97h25.35v14.26h-41.58l.13-9.29v-72.44l-.13-9.29h41.07v14.26h-24.84v22.02h19.52v14.51h-19.52Z"/>
          <path class="cls-4" d="M1311.82,547.62h-16.6l16.35-91.02h22.06l16.35,91.02h-16.35l-3.04-18.59h-15.84l-2.92,18.59ZM1317.02,514.4h11.28l-3.8-23.93c-.63-4.33-1.27-10.18-1.52-13.37h-.76c-.13,3.18-.89,9.04-1.52,13.37l-3.68,23.93Z"/>
          <path class="cls-4" d="M1355.79,538.33v-72.44l-.13-9.29h22.18l9.25,45.32c.76,3.44,1.39,8.66,1.65,12.09h.51c.38-3.44.89-8.66,1.65-12.09l9.38-45.32h21.93l-.13,9.29v72.44l.13,9.29h-14.7l.13-9.29v-44.05c0-3.69.38-8.78.51-12.09h-.63c-.38,3.31-1.01,8.27-1.77,11.84l-10.77,53.6h-12.17l-10.77-53.6c-.76-3.56-1.27-8.53-1.77-11.84h-.51c.13,3.31.38,8.4.38,12.09v44.05l.13,9.29h-14.58l.13-9.29Z"/>
          <path class="cls-4" d="M1444.89,522.42c1.52,8.4,5.32,11.58,10.77,11.58s8.37-3.18,8.37-7.89c0-5.09-3.3-9.93-10.52-15.28l-8.37-6.11c-10.01-7.38-14.32-16.04-14.32-25.59,0-14.13,9.63-24.06,24.59-24.06,13.82,0,21.8,8.4,23.83,22.66l-15.84,2.16c-.89-6.11-3.42-9.68-8.49-9.68s-7.61,3.44-7.61,8.15c0,5.73,4.06,9.8,10.65,14.64l8.24,5.98c9.51,7,14.32,15.91,14.32,26.22,0,14.64-9.76,23.93-24.97,23.93s-24.21-9.17-26.36-24.57l15.72-2.16Z"/>
          <path class="cls-4" d="M1486.2,532.86h15.08v14.77h-15.08v-14.77Z"/>
        </g>
      </g>
    </g>
  </g>
</svg>