<?xml version="1.0" encoding="UTF-8"?>
<svg id="Livello_2" data-name="Livello 2" xmlns="http://www.w3.org/2000/svg" viewBox="0 0 645.43 256.05">
  <defs>
    <style>
      .cls-1 {
        fill: #1f1abf;
        stroke-width: 0px;
      }
    </style>
  </defs>
  <g id="About_Us" data-name="About Us">
    <g>
      <path class="cls-1" d="M645.43,40.14V0h-169.66v7.68c-12.46-4.92-28.5-7.68-48.94-7.68h-80.58l.45,26.11v18.2L336.7,0h-77.89l-44.84,198.75h-71.1v-68.94h-40.81v68.94h-61.92v-87.29H0v144.59h259.71l10.3-52.3h55.96l10.74,52.3h67.3l-.45-26.11v-79.16h21.93l36.71,105.27h60.88l-42.97-116.39c26.41-13.28,35.81-36.56,35.81-63.42v-.67c0-12.83-1.64-24.84-6.04-35.44h22.31v189.8l-.45,26.11h57.3l-.45-26.11V40.14h56.85ZM278.06,162.57l12.98-67.3c2.24-12.16,4.93-28.65,5.37-37.6h2.68c.9,8.95,3.13,25.44,5.37,37.6l13.43,67.3h-39.84ZM457.27,75.95c0,19.7-6.27,35.81-38.5,35.81h-15.22V40.14h16.12c30.89,0,37.6,15.74,37.6,35.44v.37Z"/>
      <circle class="cls-1" cx="188.88" cy="101.41" r="28.42"/>
    </g>
  </g>
</svg>