<?xml version="1.0" encoding="UTF-8"?>
<svg id="Livello_2" data-name="Livello 2" xmlns="http://www.w3.org/2000/svg" viewBox="0 0 101.8 110">
  <defs>
    <style>
      .cls-1 {
        fill: #FFDE00;
        stroke-width: 0px;
      }
    </style>
  </defs>
  <g id="LOGO_FACTORY_SX" data-name="LOGO FACTORY SX">
    <g>
      <g>
        <path class="cls-1" d="M14.85,45.64c0,24.01,19.46,43.48,43.48,43.48,13.17,0,24.98-5.87,32.96-15.13v17.3H0V0h91.29v17.29c-7.97-9.26-19.78-15.12-32.96-15.12C34.32,2.17,14.85,21.63,14.85,45.64Z"/>
        <path class="cls-1" d="M101.8,45.64c0,10.84-3.96,20.74-10.51,28.35V17.29c6.56,7.61,10.51,17.51,10.51,28.35Z"/>
      </g>
      <g>
        <path class="cls-1" d="M2.2,105.49v3.34l.02,1H0l.02-1v-7.83l-.02-1h5.56v1.54h-3.35v2.38h2.65v1.57h-2.65Z"/>
        <path class="cls-1" d="M7.55,109.84h-2.25l2.22-9.84h2.99l2.22,9.84h-2.22l-.41-2.01h-2.15l-.4,2.01ZM8.26,106.24h1.53l-.52-2.59c-.09-.47-.17-1.1-.21-1.45h-.1c-.02.34-.12.98-.21,1.45l-.5,2.59Z"/>
        <path class="cls-1" d="M14.71,109.44c-.69-.48-1.07-1.25-1.07-3.25v-2.55c0-2,.38-2.77,1.07-3.25.53-.37,1.29-.56,2.2-.56.96,0,1.7.22,2.18.56.69.48,1.07,1.27,1.07,3.03v.03h-2.22v-.03c0-1.17,0-1.95-1.03-1.95s-1.05.78-1.05,1.79v3.32c0,1.05,0,1.79,1.05,1.79s1.07-.74,1.07-2.19h0s2.22-.01,2.22-.01h0c0,2.02-.4,2.79-1.08,3.28-.53.37-1.29.56-2.2.56s-1.67-.19-2.2-.56Z"/>
        <path class="cls-1" d="M24.98,101.54v7.29l.02,1h-2.2l.02-1v-7.29h-2.17v-1.54h6.52v1.54h-2.18Z"/>
        <path class="cls-1" d="M28.97,109.44c-.69-.48-1.07-1.25-1.07-3.25v-2.55c0-2,.38-2.77,1.07-3.25.53-.37,1.29-.56,2.18-.56s1.67.19,2.2.56c.69.48,1.07,1.25,1.07,3.25v2.55c0,2-.38,2.77-1.07,3.25-.53.37-1.29.56-2.2.56s-1.65-.19-2.18-.56ZM32.2,106.57v-3.32c0-1.02,0-1.79-1.05-1.79s-1.03.77-1.03,1.79v3.32c0,1.02,0,1.79,1.03,1.79s1.05-.77,1.05-1.79Z"/>
        <path class="cls-1" d="M38.34,105.79v3.04l.02,1h-2.22l.02-1v-7.83l-.02-1h3.1c2.75,0,3.42,1.31,3.42,2.9v.03c0,1.03-.36,1.93-1.38,2.44l1.65,4.47h-2.34l-1.41-4.05h-.84ZM38.34,104.29h.58c1.24,0,1.48-.62,1.48-1.38h0c0-.77-.26-1.38-1.45-1.38h-.62v2.75Z"/>
        <path class="cls-1" d="M46.77,103.54h.07l1.41-3.55h2.17l-2.53,5.81v3.03l.02,1h-2.24l.02-1v-3.03l-2.55-5.81h2.22l1.41,3.55Z"/>
        <path class="cls-1" d="M54.51,109.44c-.69-.48-1.07-1.25-1.07-3.25v-2.55c0-2,.38-2.77,1.07-3.25.53-.37,1.29-.56,2.18-.56s1.67.19,2.2.56c.69.48,1.07,1.25,1.07,3.25v2.55c0,2-.38,2.77-1.07,3.25-.53.37-1.29.56-2.2.56s-1.65-.19-2.18-.56ZM57.75,106.57v-3.32c0-1.02,0-1.79-1.05-1.79s-1.03.77-1.03,1.79v3.32c0,1.02,0,1.79,1.03,1.79s1.05-.77,1.05-1.79Z"/>
        <path class="cls-1" d="M63.89,105.49v3.34l.02,1h-2.22l.02-1v-7.83l-.02-1h5.56v1.54h-3.35v2.38h2.65v1.57h-2.65Z"/>
        <path class="cls-1" d="M71.73,109.84h-2.25l2.22-9.84h2.99l2.22,9.84h-2.22l-.41-2.01h-2.15l-.4,2.01ZM72.44,106.24h1.53l-.52-2.59c-.09-.47-.17-1.1-.21-1.45h-.1c-.02.34-.12.98-.21,1.45l-.5,2.59Z"/>
        <path class="cls-1" d="M80.13,105.79v3.04l.02,1h-2.22l.02-1v-7.83l-.02-1h3.1c2.75,0,3.42,1.31,3.42,2.9v.03c0,1.03-.36,1.93-1.38,2.44l1.65,4.47h-2.34l-1.41-4.05h-.84ZM80.13,104.29h.58c1.24,0,1.48-.62,1.48-1.38h0c0-.77-.26-1.38-1.45-1.38h-.62v2.75Z"/>
        <path class="cls-1" d="M89.11,101.54v7.29l.02,1h-2.2l.02-1v-7.29h-2.17v-1.54h6.52v1.54h-2.18Z"/>
      </g>
      <path class="cls-1" d="M96.5,100c1.64,0,2.74,1.09,2.74,2.44s-1.1,2.44-2.74,2.44-2.74-1.09-2.74-2.44,1.1-2.44,2.74-2.44ZM96.5,104.43c1.25,0,2.1-.88,2.1-1.99s-.85-1.99-2.1-1.99-2.1.89-2.1,1.99.85,1.99,2.1,1.99ZM95.72,103.86c-.23-.16-.37-.43-.37-1v-.86c0-.56.12-.83.37-.99.19-.13.44-.19.75-.19.34,0,.61.08.78.19.23.15.38.39.38.93v.02h-.73v-.02c0-.33,0-.6-.41-.6s-.41.28-.41.56v1.08c0,.29,0,.56.41.56s.42-.27.42-.65v-.03h.73c0,.54-.12.83-.39,1.01-.18.12-.44.19-.77.19-.37,0-.62-.09-.77-.19Z"/>
    </g>
  </g>
</svg>
