<?xml version="1.0" encoding="UTF-8"?>
<svg id="Livello_2" data-name="Livello 2" xmlns="http://www.w3.org/2000/svg" viewBox="0 0 1682.2 394.9">
  <defs>
    <style>
      .cls-1 {
        fill: #1f1abf;
        stroke-width: 0px;
      }
    </style>
  </defs>
  <g id="About_Us" data-name="About Us">
    <g>
      <g>
        <path class="cls-1" d="M52.22,197.44c0,84.41,68.43,152.87,152.87,152.87,46.32,0,87.84-20.62,115.88-53.19v60.82H0V36.97h320.97v60.8c-28.04-32.57-69.56-53.17-115.88-53.17-84.44,0-152.87,68.43-152.87,152.84Z"/>
        <path class="cls-1" d="M357.93,197.44c0,38.1-13.91,72.93-36.96,99.67V97.76c23.05,26.74,36.96,61.58,36.96,99.67Z"/>
      </g>
      <g>
        <path class="cls-1" d="M1521.7,305.71c84.41,0,152.87-68.43,152.87-152.87,0-46.32-20.62-87.84-53.19-115.88h60.82s0,320.97,0,320.97h-320.97s0-320.97,0-320.97h60.8c-32.57,28.04-53.17,69.56-53.17,115.88,0,84.44,68.43,152.87,152.84,152.87Z"/>
        <path class="cls-1" d="M1521.7,0c38.1,0,72.93,13.91,99.67,36.96h-199.35C1448.77,13.91,1483.61,0,1521.7,0Z"/>
      </g>
      <g>
        <path class="cls-1" d="M626.56,89.19c-84.41,0-152.87,68.43-152.87,152.87,0,46.32,20.62,87.84,53.19,115.88h-60.82s0-320.97,0-320.97h320.97s0,320.97,0,320.97h-60.8c32.57-28.04,53.17-69.56,53.17-115.88,0-84.44-68.43-152.87-152.84-152.87Z"/>
        <path class="cls-1" d="M626.56,394.9c-38.1,0-72.93-13.91-99.67-36.96h199.35c-26.74,23.05-61.58,36.96-99.67,36.96Z"/>
      </g>
      <g>
        <path class="cls-1" d="M1200.87,197.46c0-84.41-68.43-152.87-152.87-152.87-46.32,0-87.84,20.62-115.88,53.19v-60.82s320.97,0,320.97,0v320.97s-320.97,0-320.97,0v-60.8c28.04,32.57,69.56,53.17,115.88,53.17,84.44,0,152.87-68.43,152.87-152.84Z"/>
        <path class="cls-1" d="M895.17,197.46c0-38.1,13.91-72.93,36.96-99.67v199.35c-23.05-26.74-36.96-61.58-36.96-99.67Z"/>
      </g>
    </g>
  </g>
</svg>