<?xml version="1.0" encoding="UTF-8"?>
<svg id="Livello_2" data-name="Livello 2" xmlns="http://www.w3.org/2000/svg" viewBox="0 0 1793.75 873.63">
  <defs>
    <style>
      .cls-1 {
        fill: #FFDE00;
        stroke-width: 0px;
      }
    </style>
  </defs>
  <g id="Animazione_Apertura" data-name="Animazione Apertura">
    <path class="cls-1" d="M1127.11,69.77V0h-294.89v13.36c-21.66-8.56-49.54-13.36-85.07-13.36h-140.05l.78,45.39v31.64L590.5,0h-135.38l-77.94,345.47h-123.58v-119.82h-70.93v119.82h-107.63v-151.72H5.26v251.32h451.41l17.9-90.91h97.26l18.67,90.91h116.97l-.78-45.39v-137.59h38.12l63.8,182.98h105.82l-74.7-202.3c45.91-23.08,62.25-63.54,62.25-110.23v-1.17c0-22.31-2.85-43.18-10.5-61.6h38.77v329.9l-.78,45.39h99.6l-.78-45.39V69.77h98.81ZM488.57,282.57l22.56-116.97c3.89-21.14,8.56-49.8,9.34-65.36h4.67c1.56,15.56,5.45,44.22,9.34,65.36l23.34,116.97h-69.25ZM800.06,132.01c0,34.24-10.89,62.25-66.91,62.25h-26.46v-124.49h28.01c53.69,0,65.36,27.36,65.36,61.6v.65Z"/>
    <circle class="cls-1" cx="333.56" cy="176.27" r="49.4"/>
    <path class="cls-1" d="M6.54,684.61h37.7l11.7,84.76c1.04,7.54,1.82,16.64,2.34,24.44h1.04c.78-7.54,1.3-16.9,2.6-24.44l14.82-84.76h31.98l14.56,84.76c1.3,7.54,2.08,16.9,2.6,24.44h1.04c.52-7.8,1.56-16.9,2.6-24.44l11.44-84.76h37.44l-29.12,185.9h-38.74l-14.3-76.7c-1.56-8.58-2.6-18.46-3.38-26.78h-1.04c-.52,8.32-1.82,18.2-3.38,26.78l-14.04,76.7h-39l-28.86-185.9Z"/>
    <path class="cls-1" d="M229.1,790.43v46.8h50.7v33.28h-89.44l.26-18.98v-147.94l-.26-18.98h88.4v33.28h-49.66v38.74h40.04v33.8h-40.04Z"/>
    <path class="cls-1" d="M346.88,862.19c-11.44-9.88-16.9-26-16.9-62.66v-43.94c0-36.66,5.46-52.78,16.9-62.66,8.06-7.02,20.54-11.44,37.18-11.44,15.08,0,27.56,3.64,36.66,11.44,12.22,10.4,17.16,28.08,17.16,59.28v.78h-39.26v-1.04c0-21.32,0-35.62-14.82-35.62s-14.82,14.3-14.82,31.2v60.06c0,17.42,0,31.2,14.82,31.2s15.34-14.3,15.34-39v-1.56h39.26v1.04c0,35.36-5.46,52.78-17.42,62.92-8.84,7.54-21.06,11.44-36.92,11.44s-28.08-3.64-37.18-11.44Z"/>
    <path class="cls-1" d="M493.25,796.67v54.86l.26,18.98h-39l.26-18.98v-147.94l-.26-18.98h50.7c45.24,0,56.42,25.74,56.42,56.68v.52c0,19.24-5.46,35.88-20.54,45.5l24.7,83.2h-41.08l-20.02-73.84h-11.44ZM493.25,764.95h7.54c17.94,0,21.58-10.66,21.58-23.66v-.52c0-13-3.9-23.66-21.06-23.66h-8.06v47.84Z"/>
    <path class="cls-1" d="M617.53,790.43v46.8h50.7v33.28h-89.44l.26-18.98v-147.94l-.26-18.98h88.4v33.28h-49.66v38.74h40.04v33.8h-40.04Z"/>
    <path class="cls-1" d="M711.91,870.51h-39l34.32-185.9h53.04l34.06,185.9h-38.48l-5.72-35.1h-32.76l-5.46,35.1ZM722.83,801.61h21.84l-6.76-42.64c-1.3-9.36-2.86-21.84-3.38-29.12h-1.56c-.52,7.28-1.82,19.76-3.38,29.12l-6.76,42.64Z"/>
    <path class="cls-1" d="M857.25,717.89v133.64l.26,18.98h-39l.26-18.98v-133.64h-33.28v-33.28h105.04v33.28h-33.28Z"/>
    <path class="cls-1" d="M941.75,790.43v46.8h50.7v33.28h-89.44l.26-18.98v-147.94l-.26-18.98h88.4v33.28h-49.66v38.74h40.04v33.8h-40.04Z"/>
    <path class="cls-1" d="M1030.67,684.61h37.7l11.7,84.76c1.04,7.54,1.82,16.64,2.34,24.44h1.04c.78-7.54,1.3-16.9,2.6-24.44l14.82-84.76h31.98l14.56,84.76c1.3,7.54,2.08,16.9,2.6,24.44h1.04c.52-7.8,1.56-16.9,2.6-24.44l11.44-84.76h37.44l-29.12,185.9h-38.74l-14.3-76.7c-1.56-8.58-2.6-18.46-3.38-26.78h-1.04c-.52,8.32-1.82,18.2-3.38,26.78l-14.04,76.7h-39l-28.86-185.9Z"/>
    <path class="cls-1" d="M1229.83,862.19c-11.44-9.88-16.9-26-16.9-62.66v-43.94c0-36.66,5.46-52.78,16.9-62.66,8.58-7.28,21.06-11.44,36.92-11.44s28.08,4.16,36.66,11.44c11.44,9.88,17.16,26,17.16,62.66v43.94c0,36.66-5.72,52.78-17.16,62.66-8.58,7.54-20.8,11.44-36.66,11.44s-28.34-3.9-36.92-11.44ZM1281.56,807.59v-60.06c0-15.08,0-31.2-14.82-31.2s-14.82,16.12-14.82,31.2v60.06c0,15.08,0,31.2,14.82,31.2s14.82-16.12,14.82-31.2Z"/>
    <path class="cls-1" d="M1379.58,796.67v54.86l.26,18.98h-39l.26-18.98v-147.94l-.26-18.98h50.7c45.24,0,56.42,25.74,56.42,56.68v.52c0,19.24-5.46,35.88-20.54,45.5l24.7,83.2h-41.08l-20.02-73.84h-11.44ZM1379.58,764.95h7.54c17.94,0,21.58-10.66,21.58-23.66v-.52c0-13-3.9-23.66-21.06-23.66h-8.06v47.84Z"/>
    <path class="cls-1" d="M1465.12,870.51l.26-18.98v-147.94l-.26-18.98h39l-.26,18.98v133.64h45.5v33.28h-84.24Z"/>
    <path class="cls-1" d="M1652.84,695.79c11.7,9.62,16.38,24.18,16.38,51.22v61.1c0,27.04-4.68,41.6-16.38,51.22-9.36,7.8-21.32,11.18-35.88,11.18h-55.12l.26-18.98v-147.94l-.26-18.98h55.12c14.56,0,26.52,3.38,35.88,11.18ZM1600.58,717.11v120.9h10.4c15.34,0,18.98-10.92,18.98-24.7v-71.5c0-12.22-3.38-24.7-18.98-24.7h-10.4Z"/>
    <path class="cls-1" d="M1717.32,815.13c3.12,16.64,10.14,23.66,21.32,23.66,9.88,0,15.34-5.46,15.34-14.04,0-9.36-5.98-17.68-20.54-27.56l-19.24-12.48c-20.28-14.04-29.9-31.2-29.9-51.74,0-30.42,21.06-51.48,54.6-51.48,30.68,0,49.66,18.2,52.78,51.48l-36.66,3.12c-2.08-12.48-6.76-19.76-16.9-19.76-9.1,0-14.3,5.98-14.3,14.56,0,10.14,7.28,16.9,19.5,25.48l19.5,12.48c20.54,13.78,30.94,31.98,30.94,54.08,0,31.46-21.32,50.7-54.6,50.7s-55.12-19.76-58.5-55.38l36.66-3.12Z"/>
    <path class="cls-1" d="M38.74,588.59v59.54l.26,18.98H0l.26-18.98v-147.94l-.26-18.98h87.1v33.28h-48.36v40.3h39v33.8h-39Z"/>
    <path class="cls-1" d="M118.3,667.11h-39l34.32-185.9h53.04l34.06,185.9h-38.48l-5.72-35.1h-32.76l-5.46,35.1ZM129.22,598.21h21.84l-6.76-42.64c-1.3-9.36-2.86-21.84-3.38-29.12h-1.56c-.52,7.28-1.82,19.76-3.38,29.12l-6.76,42.64Z"/>
    <path class="cls-1" d="M226.71,658.79c-11.44-9.88-16.9-26-16.9-62.66v-43.94c0-36.66,5.46-52.78,16.9-62.66,8.06-7.02,20.54-11.44,37.18-11.44,15.08,0,27.56,3.64,36.66,11.44,12.22,10.4,17.16,28.08,17.16,59.28v.78h-39.26v-1.04c0-21.32,0-35.62-14.82-35.62s-14.82,14.3-14.82,31.2v60.06c0,17.42,0,31.2,14.82,31.2s15.34-14.3,15.34-39v-1.56h39.26v1.04c0,35.36-5.46,52.78-17.42,62.92-8.84,7.54-21.06,11.44-36.92,11.44s-28.08-3.64-37.18-11.44Z"/>
    <path class="cls-1" d="M393.11,514.49v133.64l.26,18.98h-39l.26-18.98v-133.64h-33.28v-33.28h105.04v33.28h-33.28Z"/>
    <path class="cls-1" d="M450.05,658.79c-11.44-9.88-16.9-26-16.9-62.66v-43.94c0-36.66,5.46-52.78,16.9-62.66,8.58-7.28,21.06-11.44,36.92-11.44s28.08,4.16,36.66,11.44c11.44,9.88,17.16,26,17.16,62.66v43.94c0,36.66-5.72,52.78-17.16,62.66-8.58,7.54-20.8,11.44-36.66,11.44s-28.34-3.9-36.92-11.44ZM501.79,604.19v-60.06c0-15.08,0-31.2-14.82-31.2s-14.82,16.12-14.82,31.2v60.06c0,15.08,0,31.2,14.82,31.2s14.82-16.12,14.82-31.2Z"/>
    <path class="cls-1" d="M599.81,593.27v54.86l.26,18.98h-39l.26-18.98v-147.94l-.26-18.98h50.7c45.24,0,56.42,25.74,56.42,56.68v.52c0,19.24-5.46,35.88-20.54,45.5l24.7,83.2h-41.08l-20.02-73.84h-11.44ZM599.81,561.55h7.54c17.94,0,21.58-10.66,21.58-23.66v-.52c0-13-3.9-23.66-21.06-23.66h-8.06v47.84Z"/>
    <path class="cls-1" d="M729.55,546.21h1.04l21.32-65h38.22l-40.82,111.8v55.12l.26,18.98h-39.26l.26-18.98v-55.12l-41.08-111.8h39.26l20.8,65Z"/>
    <path class="cls-1" d="M845.77,658.79c-11.44-9.88-16.9-26-16.9-62.66v-43.94c0-36.66,5.46-52.78,16.9-62.66,8.58-7.28,21.06-11.44,36.92-11.44s28.08,4.16,36.66,11.44c11.44,9.88,17.16,26,17.16,62.66v43.94c0,36.66-5.72,52.78-17.16,62.66-8.58,7.54-20.8,11.44-36.66,11.44s-28.34-3.9-36.92-11.44ZM897.51,604.19v-60.06c0-15.08,0-31.2-14.82-31.2s-14.82,16.12-14.82,31.2v60.06c0,15.08,0,31.2,14.82,31.2s14.82-16.12,14.82-31.2Z"/>
    <path class="cls-1" d="M995.52,588.59v59.54l.26,18.98h-39l.26-18.98v-147.94l-.26-18.98h87.1v33.28h-48.36v40.3h39v33.8h-39Z"/>
    <path class="cls-1" d="M1111.22,667.11h-39l34.32-185.9h53.04l34.06,185.9h-38.48l-5.72-35.1h-32.76l-5.46,35.1ZM1122.14,598.21h21.84l-6.76-42.64c-1.3-9.36-2.86-21.84-3.38-29.12h-1.56c-.52,7.28-1.82,19.76-3.38,29.12l-6.76,42.64Z"/>
    <path class="cls-1" d="M1243.04,593.27v54.86l.26,18.98h-39l.26-18.98v-147.94l-.26-18.98h50.7c45.24,0,56.42,25.74,56.42,56.68v.52c0,19.24-5.46,35.88-20.54,45.5l24.7,83.2h-41.08l-20.02-73.84h-11.44ZM1243.04,561.55h7.54c17.94,0,21.58-10.66,21.58-23.66v-.52c0-13-3.9-23.66-21.06-23.66h-8.06v47.84Z"/>
    <path class="cls-1" d="M1383.96,514.49v133.64l.26,18.98h-39l.26-18.98v-133.64h-33.28v-33.28h105.04v33.28h-33.28Z"/>
  </g>
</svg>
